  0
SECTION
  2
HEADER
  9
$ACADVER
  1
AC1009
  9
$EXTMIN
 10
0.0
 20
0.0
 30
0.0
  9
$EXTMAX
 10
1000.0
 20
1000.0
 30
0.0
  9
$FILLMODE
 70
 0
  9
$SPLFRAME
 70
 1
  0
ENDSEC
  0
SECTION
  2
TABLES
  0
TABLE
  2
LAYER
 70
1
  0
LAYER
  2
0
 70
     0
 62
     7
  6
CONTINUOUS
  0
ENDTAB
  0
ENDSEC
  0
SECTION
  2
ENTITIES
  0
LINE
  8
0
 62
     0
 10
285.608
 20
39.5993
 30
0.0
 11
280.857
 21
39.5993
 31
0.0
  0
LINE
  8
0
 62
     0
 10
280.857
 20
39.5993
 30
0.0
 11
280.494
 21
39.5414
 31
0.0
  0
LINE
  8
0
 62
     0
 10
280.494
 20
39.5414
 30
0.0
 11
280.166
 21
39.3746
 31
0.0
  0
LINE
  8
0
 62
     0
 10
280.166
 20
39.3746
 30
0.0
 11
279.907
 21
39.1156
 31
0.0
  0
LINE
  8
0
 62
     0
 10
279.907
 20
39.1156
 30
0.0
 11
279.74
 21
38.7876
 31
0.0
  0
LINE
  8
0
 62
     0
 10
279.74
 20
38.7876
 30
0.0
 11
279.683
 21
38.4238
 31
0.0
  0
LINE
  8
0
 62
     0
 10
279.683
 20
38.4238
 30
0.0
 11
279.74
 21
38.0615
 31
0.0
  0
LINE
  8
0
 62
     0
 10
279.74
 20
38.0615
 30
0.0
 11
279.907
 21
37.7335
 31
0.0
  0
LINE
  8
0
 62
     0
 10
279.907
 20
37.7335
 30
0.0
 11
280.166
 21
37.4745
 31
0.0
  0
LINE
  8
0
 62
     0
 10
280.166
 20
37.4745
 30
0.0
 11
280.494
 21
37.3063
 31
0.0
  0
LINE
  8
0
 62
     0
 10
280.494
 20
37.3063
 30
0.0
 11
280.857
 21
37.2484
 31
0.0
  0
LINE
  8
0
 62
     0
 10
280.857
 20
37.2484
 30
0.0
 11
285.608
 21
37.2484
 31
0.0
  0
LINE
  8
0
 62
     0
 10
285.608
 20
37.2484
 30
0.0
 11
285.608
 21
0.0854385
 31
0.0
  0
LINE
  8
0
 62
     0
 10
285.608
 20
0.0854385
 30
0.0
 11
0.0826823
 21
0.0854385
 31
0.0
  0
LINE
  8
0
 62
     0
 10
0.0826823
 20
0.0854385
 30
0.0
 11
0.0826823
 21
37.2484
 31
0.0
  0
LINE
  8
0
 62
     0
 10
0.0826823
 20
37.2484
 30
0.0
 11
4.83415
 21
37.2484
 31
0.0
  0
LINE
  8
0
 62
     0
 10
4.83415
 20
37.2484
 30
0.0
 11
5.19522
 21
37.3063
 31
0.0
  0
LINE
  8
0
 62
     0
 10
5.19522
 20
37.3063
 30
0.0
 11
5.52319
 21
37.4745
 31
0.0
  0
LINE
  8
0
 62
     0
 10
5.52319
 20
37.4745
 30
0.0
 11
5.78224
 21
37.7335
 31
0.0
  0
LINE
  8
0
 62
     0
 10
5.78224
 20
37.7335
 30
0.0
 11
5.95037
 21
38.0615
 31
0.0
  0
LINE
  8
0
 62
     0
 10
5.95037
 20
38.0615
 30
0.0
 11
6.00826
 21
38.4224
 31
0.0
  0
LINE
  8
0
 62
     0
 10
6.00826
 20
38.4224
 30
0.0
 11
5.95037
 21
38.7876
 31
0.0
  0
LINE
  8
0
 62
     0
 10
5.95037
 20
38.7876
 30
0.0
 11
5.78224
 21
39.1156
 31
0.0
  0
LINE
  8
0
 62
     0
 10
5.78224
 20
39.1156
 30
0.0
 11
5.52319
 21
39.3746
 31
0.0
  0
LINE
  8
0
 62
     0
 10
5.52319
 20
39.3746
 30
0.0
 11
5.19522
 21
39.5414
 31
0.0
  0
LINE
  8
0
 62
     0
 10
5.19522
 20
39.5414
 30
0.0
 11
4.83415
 21
39.5993
 31
0.0
  0
LINE
  8
0
 62
     0
 10
4.83415
 20
39.5993
 30
0.0
 11
0.0826823
 21
39.5993
 31
0.0
  0
LINE
  8
0
 62
     0
 10
0.0826823
 20
39.5993
 30
0.0
 11
0.0826823
 21
95.1618
 31
0.0
  0
LINE
  8
0
 62
     0
 10
0.0826823
 20
95.1618
 30
0.0
 11
285.608
 21
95.1618
 31
0.0
  0
LINE
  8
0
 62
     0
 10
285.608
 20
95.1618
 30
0.0
 11
285.608
 21
39.5993
 31
0.0
  0
LINE
  8
0
 62
     0
 10
121.631
 20
16.4496
 30
0.0
 11
121.631
 21
11.7492
 31
0.0
  0
LINE
  8
0
 62
     0
 10
121.631
 20
11.7492
 30
0.0
 11
112.806
 21
11.7492
 31
0.0
  0
LINE
  8
0
 62
     0
 10
112.806
 20
11.7492
 30
0.0
 11
112.806
 21
14.9806
 31
0.0
  0
LINE
  8
0
 62
     0
 10
112.806
 20
14.9806
 30
0.0
 11
106.208
 21
14.9806
 31
0.0
  0
LINE
  8
0
 62
     0
 10
106.208
 20
14.9806
 30
0.0
 11
106.208
 21
11.7492
 31
0.0
  0
LINE
  8
0
 62
     0
 10
106.208
 20
11.7492
 30
0.0
 11
105.381
 21
11.7492
 31
0.0
  0
LINE
  8
0
 62
     0
 10
105.381
 20
11.7492
 30
0.0
 11
105.381
 21
9.10057
 31
0.0
  0
LINE
  8
0
 62
     0
 10
105.381
 20
9.10057
 30
0.0
 11
106.208
 21
9.10057
 31
0.0
  0
LINE
  8
0
 62
     0
 10
106.208
 20
9.10057
 30
0.0
 11
106.208
 21
2.83049
 31
0.0
  0
LINE
  8
0
 62
     0
 10
106.208
 20
2.83049
 30
0.0
 11
107.932
 21
2.83049
 31
0.0
  0
LINE
  8
0
 62
     0
 10
107.932
 20
2.83049
 30
0.0
 11
107.932
 21
1.63022
 31
0.0
  0
LINE
  8
0
 62
     0
 10
107.932
 20
1.63022
 30
0.0
 11
111.082
 21
1.63022
 31
0.0
  0
LINE
  8
0
 62
     0
 10
111.082
 20
1.63022
 30
0.0
 11
111.082
 21
2.83049
 31
0.0
  0
LINE
  8
0
 62
     0
 10
111.082
 20
2.83049
 30
0.0
 11
112.806
 21
2.83049
 31
0.0
  0
LINE
  8
0
 62
     0
 10
112.806
 20
2.83049
 30
0.0
 11
112.806
 21
7.29947
 31
0.0
  0
LINE
  8
0
 62
     0
 10
112.806
 20
7.29947
 30
0.0
 11
121.631
 21
7.29947
 31
0.0
  0
LINE
  8
0
 62
     0
 10
121.631
 20
7.29947
 30
0.0
 11
121.631
 21
2.60036
 31
0.0
  0
LINE
  8
0
 62
     0
 10
121.631
 20
2.60036
 30
0.0
 11
135.483
 21
2.60036
 31
0.0
  0
LINE
  8
0
 62
     0
 10
135.483
 20
2.60036
 30
0.0
 11
135.483
 21
7.29947
 31
0.0
  0
LINE
  8
0
 62
     0
 10
135.483
 20
7.29947
 30
0.0
 11
144.308
 21
7.29947
 31
0.0
  0
LINE
  8
0
 62
     0
 10
144.308
 20
7.29947
 30
0.0
 11
144.308
 21
2.83049
 31
0.0
  0
LINE
  8
0
 62
     0
 10
144.308
 20
2.83049
 30
0.0
 11
146.032
 21
2.83049
 31
0.0
  0
LINE
  8
0
 62
     0
 10
146.032
 20
2.83049
 30
0.0
 11
146.032
 21
1.63022
 31
0.0
  0
LINE
  8
0
 62
     0
 10
146.032
 20
1.63022
 30
0.0
 11
149.182
 21
1.63022
 31
0.0
  0
LINE
  8
0
 62
     0
 10
149.182
 20
1.63022
 30
0.0
 11
149.182
 21
2.83049
 31
0.0
  0
LINE
  8
0
 62
     0
 10
149.182
 20
2.83049
 30
0.0
 11
150.906
 21
2.83049
 31
0.0
  0
LINE
  8
0
 62
     0
 10
150.906
 20
2.83049
 30
0.0
 11
150.906
 21
9.10057
 31
0.0
  0
LINE
  8
0
 62
     0
 10
150.906
 20
9.10057
 30
0.0
 11
151.733
 21
9.10057
 31
0.0
  0
LINE
  8
0
 62
     0
 10
151.733
 20
9.10057
 30
0.0
 11
151.733
 21
11.7492
 31
0.0
  0
LINE
  8
0
 62
     0
 10
151.733
 20
11.7492
 30
0.0
 11
150.906
 21
11.7492
 31
0.0
  0
LINE
  8
0
 62
     0
 10
150.906
 20
11.7492
 30
0.0
 11
150.906
 21
14.9806
 31
0.0
  0
LINE
  8
0
 62
     0
 10
150.906
 20
14.9806
 30
0.0
 11
144.308
 21
14.9806
 31
0.0
  0
LINE
  8
0
 62
     0
 10
144.308
 20
14.9806
 30
0.0
 11
144.308
 21
11.7492
 31
0.0
  0
LINE
  8
0
 62
     0
 10
144.308
 20
11.7492
 30
0.0
 11
135.483
 21
11.7492
 31
0.0
  0
LINE
  8
0
 62
     0
 10
135.483
 20
11.7492
 30
0.0
 11
135.483
 21
16.4496
 31
0.0
  0
LINE
  8
0
 62
     0
 10
135.483
 20
16.4496
 30
0.0
 11
121.631
 21
16.4496
 31
0.0
  0
LINE
  8
0
 62
     0
 10
7.33256
 20
16.4496
 30
0.0
 11
21.1832
 21
16.4496
 31
0.0
  0
LINE
  8
0
 62
     0
 10
21.1832
 20
16.4496
 30
0.0
 11
21.1832
 21
2.60036
 31
0.0
  0
LINE
  8
0
 62
     0
 10
21.1832
 20
2.60036
 30
0.0
 11
7.33256
 21
2.60036
 31
0.0
  0
LINE
  8
0
 62
     0
 10
7.33256
 20
2.60036
 30
0.0
 11
7.33256
 21
16.4496
 31
0.0
  0
LINE
  8
0
 62
     0
 10
45.4325
 20
16.4496
 30
0.0
 11
59.2832
 21
16.4496
 31
0.0
  0
LINE
  8
0
 62
     0
 10
59.2832
 20
16.4496
 30
0.0
 11
59.2832
 21
2.60036
 31
0.0
  0
LINE
  8
0
 62
     0
 10
59.2832
 20
2.60036
 30
0.0
 11
45.4325
 21
2.60036
 31
0.0
  0
LINE
  8
0
 62
     0
 10
45.4325
 20
2.60036
 30
0.0
 11
45.4325
 21
16.4496
 31
0.0
  0
LINE
  8
0
 62
     0
 10
64.4825
 20
16.4496
 30
0.0
 11
78.3332
 21
16.4496
 31
0.0
  0
LINE
  8
0
 62
     0
 10
78.3332
 20
16.4496
 30
0.0
 11
78.3332
 21
2.60036
 31
0.0
  0
LINE
  8
0
 62
     0
 10
78.3332
 20
2.60036
 30
0.0
 11
64.4825
 21
2.60036
 31
0.0
  0
LINE
  8
0
 62
     0
 10
64.4825
 20
2.60036
 30
0.0
 11
64.4825
 21
16.4496
 31
0.0
  0
LINE
  8
0
 62
     0
 10
83.5325
 20
16.4496
 30
0.0
 11
97.3818
 21
16.4496
 31
0.0
  0
LINE
  8
0
 62
     0
 10
97.3818
 20
16.4496
 30
0.0
 11
97.3818
 21
2.60036
 31
0.0
  0
LINE
  8
0
 62
     0
 10
97.3818
 20
2.60036
 30
0.0
 11
83.5325
 21
2.60036
 31
0.0
  0
LINE
  8
0
 62
     0
 10
83.5325
 20
2.60036
 30
0.0
 11
83.5325
 21
16.4496
 31
0.0
  0
LINE
  8
0
 62
     0
 10
159.731
 20
16.4496
 30
0.0
 11
173.582
 21
16.4496
 31
0.0
  0
LINE
  8
0
 62
     0
 10
173.582
 20
16.4496
 30
0.0
 11
173.582
 21
2.60036
 31
0.0
  0
LINE
  8
0
 62
     0
 10
173.582
 20
2.60036
 30
0.0
 11
159.731
 21
2.60036
 31
0.0
  0
LINE
  8
0
 62
     0
 10
159.731
 20
2.60036
 30
0.0
 11
159.731
 21
16.4496
 31
0.0
  0
LINE
  8
0
 62
     0
 10
178.781
 20
16.4496
 30
0.0
 11
192.632
 21
16.4496
 31
0.0
  0
LINE
  8
0
 62
     0
 10
192.632
 20
16.4496
 30
0.0
 11
192.632
 21
2.60036
 31
0.0
  0
LINE
  8
0
 62
     0
 10
192.632
 20
2.60036
 30
0.0
 11
178.781
 21
2.60036
 31
0.0
  0
LINE
  8
0
 62
     0
 10
178.781
 20
2.60036
 30
0.0
 11
178.781
 21
16.4496
 31
0.0
  0
LINE
  8
0
 62
     0
 10
197.831
 20
16.4496
 30
0.0
 11
211.683
 21
16.4496
 31
0.0
  0
LINE
  8
0
 62
     0
 10
211.683
 20
16.4496
 30
0.0
 11
211.683
 21
2.60036
 31
0.0
  0
LINE
  8
0
 62
     0
 10
211.683
 20
2.60036
 30
0.0
 11
197.831
 21
2.60036
 31
0.0
  0
LINE
  8
0
 62
     0
 10
197.831
 20
2.60036
 30
0.0
 11
197.831
 21
16.4496
 31
0.0
  0
LINE
  8
0
 62
     0
 10
262.125
 20
16.4496
 30
0.0
 11
275.974
 21
16.4496
 31
0.0
  0
LINE
  8
0
 62
     0
 10
275.974
 20
16.4496
 30
0.0
 11
275.974
 21
2.60036
 31
0.0
  0
LINE
  8
0
 62
     0
 10
275.974
 20
2.60036
 30
0.0
 11
262.125
 21
2.60036
 31
0.0
  0
LINE
  8
0
 62
     0
 10
262.125
 20
2.60036
 30
0.0
 11
262.125
 21
16.4496
 31
0.0
  0
LINE
  8
0
 62
     0
 10
2.57004
 20
35.4997
 30
0.0
 11
16.4193
 21
35.4997
 31
0.0
  0
LINE
  8
0
 62
     0
 10
16.4193
 20
35.4997
 30
0.0
 11
16.4193
 21
21.6504
 31
0.0
  0
LINE
  8
0
 62
     0
 10
16.4193
 20
21.6504
 30
0.0
 11
2.57004
 21
21.6504
 31
0.0
  0
LINE
  8
0
 62
     0
 10
2.57004
 20
21.6504
 30
0.0
 11
2.57004
 21
35.4997
 31
0.0
  0
LINE
  8
0
 62
     0
 10
24.0013
 20
35.4997
 30
0.0
 11
37.8506
 21
35.4997
 31
0.0
  0
LINE
  8
0
 62
     0
 10
37.8506
 20
35.4997
 30
0.0
 11
37.8506
 21
21.6504
 31
0.0
  0
LINE
  8
0
 62
     0
 10
37.8506
 20
21.6504
 30
0.0
 11
24.0013
 21
21.6504
 31
0.0
  0
LINE
  8
0
 62
     0
 10
24.0013
 20
21.6504
 30
0.0
 11
24.0013
 21
35.4997
 31
0.0
  0
LINE
  8
0
 62
     0
 10
45.4325
 20
35.4997
 30
0.0
 11
59.2832
 21
35.4997
 31
0.0
  0
LINE
  8
0
 62
     0
 10
59.2832
 20
35.4997
 30
0.0
 11
59.2832
 21
21.6504
 31
0.0
  0
LINE
  8
0
 62
     0
 10
59.2832
 20
21.6504
 30
0.0
 11
45.4325
 21
21.6504
 31
0.0
  0
LINE
  8
0
 62
     0
 10
45.4325
 20
21.6504
 30
0.0
 11
45.4325
 21
35.4997
 31
0.0
  0
LINE
  8
0
 62
     0
 10
64.4825
 20
35.4997
 30
0.0
 11
78.3332
 21
35.4997
 31
0.0
  0
LINE
  8
0
 62
     0
 10
78.3332
 20
35.4997
 30
0.0
 11
78.3332
 21
21.6504
 31
0.0
  0
LINE
  8
0
 62
     0
 10
78.3332
 20
21.6504
 30
0.0
 11
64.4825
 21
21.6504
 31
0.0
  0
LINE
  8
0
 62
     0
 10
64.4825
 20
21.6504
 30
0.0
 11
64.4825
 21
35.4997
 31
0.0
  0
LINE
  8
0
 62
     0
 10
83.5325
 20
35.4997
 30
0.0
 11
97.3818
 21
35.4997
 31
0.0
  0
LINE
  8
0
 62
     0
 10
97.3818
 20
35.4997
 30
0.0
 11
97.3818
 21
21.6504
 31
0.0
  0
LINE
  8
0
 62
     0
 10
97.3818
 20
21.6504
 30
0.0
 11
83.5325
 21
21.6504
 31
0.0
  0
LINE
  8
0
 62
     0
 10
83.5325
 20
21.6504
 30
0.0
 11
83.5325
 21
35.4997
 31
0.0
  0
LINE
  8
0
 62
     0
 10
102.582
 20
35.4997
 30
0.0
 11
116.432
 21
35.4997
 31
0.0
  0
LINE
  8
0
 62
     0
 10
116.432
 20
35.4997
 30
0.0
 11
116.432
 21
21.6504
 31
0.0
  0
LINE
  8
0
 62
     0
 10
116.432
 20
21.6504
 30
0.0
 11
102.582
 21
21.6504
 31
0.0
  0
LINE
  8
0
 62
     0
 10
102.582
 20
21.6504
 30
0.0
 11
102.582
 21
35.4997
 31
0.0
  0
LINE
  8
0
 62
     0
 10
121.631
 20
35.4997
 30
0.0
 11
135.483
 21
35.4997
 31
0.0
  0
LINE
  8
0
 62
     0
 10
135.483
 20
35.4997
 30
0.0
 11
135.483
 21
21.6504
 31
0.0
  0
LINE
  8
0
 62
     0
 10
135.483
 20
21.6504
 30
0.0
 11
121.631
 21
21.6504
 31
0.0
  0
LINE
  8
0
 62
     0
 10
121.631
 20
21.6504
 30
0.0
 11
121.631
 21
35.4997
 31
0.0
  0
LINE
  8
0
 62
     0
 10
140.682
 20
35.4997
 30
0.0
 11
154.532
 21
35.4997
 31
0.0
  0
LINE
  8
0
 62
     0
 10
154.532
 20
35.4997
 30
0.0
 11
154.532
 21
21.6504
 31
0.0
  0
LINE
  8
0
 62
     0
 10
154.532
 20
21.6504
 30
0.0
 11
140.682
 21
21.6504
 31
0.0
  0
LINE
  8
0
 62
     0
 10
140.682
 20
21.6504
 30
0.0
 11
140.682
 21
35.4997
 31
0.0
  0
LINE
  8
0
 62
     0
 10
159.732
 20
35.4997
 30
0.0
 11
173.582
 21
35.4997
 31
0.0
  0
LINE
  8
0
 62
     0
 10
173.582
 20
35.4997
 30
0.0
 11
173.582
 21
21.6504
 31
0.0
  0
LINE
  8
0
 62
     0
 10
173.582
 20
21.6504
 30
0.0
 11
159.732
 21
21.6504
 31
0.0
  0
LINE
  8
0
 62
     0
 10
159.732
 20
21.6504
 30
0.0
 11
159.732
 21
35.4997
 31
0.0
  0
LINE
  8
0
 62
     0
 10
178.781
 20
35.4997
 30
0.0
 11
192.632
 21
35.4997
 31
0.0
  0
LINE
  8
0
 62
     0
 10
192.632
 20
35.4997
 30
0.0
 11
192.632
 21
21.6504
 31
0.0
  0
LINE
  8
0
 62
     0
 10
192.632
 20
21.6504
 30
0.0
 11
178.781
 21
21.6504
 31
0.0
  0
LINE
  8
0
 62
     0
 10
178.781
 20
21.6504
 30
0.0
 11
178.781
 21
35.4997
 31
0.0
  0
LINE
  8
0
 62
     0
 10
197.831
 20
35.4997
 30
0.0
 11
211.683
 21
35.4997
 31
0.0
  0
LINE
  8
0
 62
     0
 10
211.683
 20
35.4997
 30
0.0
 11
211.683
 21
21.6504
 31
0.0
  0
LINE
  8
0
 62
     0
 10
211.683
 20
21.6504
 30
0.0
 11
197.831
 21
21.6504
 31
0.0
  0
LINE
  8
0
 62
     0
 10
197.831
 20
21.6504
 30
0.0
 11
197.831
 21
35.4997
 31
0.0
  0
LINE
  8
0
 62
     0
 10
216.881
 20
35.4997
 30
0.0
 11
230.733
 21
35.4997
 31
0.0
  0
LINE
  8
0
 62
     0
 10
230.733
 20
35.4997
 30
0.0
 11
230.733
 21
21.6504
 31
0.0
  0
LINE
  8
0
 62
     0
 10
230.733
 20
21.6504
 30
0.0
 11
216.881
 21
21.6504
 31
0.0
  0
LINE
  8
0
 62
     0
 10
216.881
 20
21.6504
 30
0.0
 11
216.881
 21
35.4997
 31
0.0
  0
LINE
  8
0
 62
     0
 10
238.312
 20
35.4997
 30
0.0
 11
252.163
 21
35.4997
 31
0.0
  0
LINE
  8
0
 62
     0
 10
252.163
 20
35.4997
 30
0.0
 11
252.163
 21
21.6504
 31
0.0
  0
LINE
  8
0
 62
     0
 10
252.163
 20
21.6504
 30
0.0
 11
238.312
 21
21.6504
 31
0.0
  0
LINE
  8
0
 62
     0
 10
238.312
 20
21.6504
 30
0.0
 11
238.312
 21
35.4997
 31
0.0
  0
LINE
  8
0
 62
     0
 10
264.506
 20
35.4997
 30
0.0
 11
278.357
 21
35.4997
 31
0.0
  0
LINE
  8
0
 62
     0
 10
278.357
 20
35.4997
 30
0.0
 11
278.357
 21
21.6504
 31
0.0
  0
LINE
  8
0
 62
     0
 10
278.357
 20
21.6504
 30
0.0
 11
264.506
 21
21.6504
 31
0.0
  0
LINE
  8
0
 62
     0
 10
264.506
 20
21.6504
 30
0.0
 11
264.506
 21
35.4997
 31
0.0
  0
LINE
  8
0
 62
     0
 10
257.362
 20
54.5497
 30
0.0
 11
257.362
 21
49.8507
 31
0.0
  0
LINE
  8
0
 62
     0
 10
257.362
 20
49.8507
 30
0.0
 11
255.688
 21
49.8507
 31
0.0
  0
LINE
  8
0
 62
     0
 10
255.688
 20
49.8507
 30
0.0
 11
255.688
 21
53.0793
 31
0.0
  0
LINE
  8
0
 62
     0
 10
255.688
 20
53.0793
 30
0.0
 11
249.089
 21
53.0793
 31
0.0
  0
LINE
  8
0
 62
     0
 10
249.089
 20
53.0793
 30
0.0
 11
249.089
 21
49.8507
 31
0.0
  0
LINE
  8
0
 62
     0
 10
249.089
 20
49.8507
 30
0.0
 11
248.263
 21
49.8507
 31
0.0
  0
LINE
  8
0
 62
     0
 10
248.263
 20
49.8507
 30
0.0
 11
248.263
 21
47.2006
 31
0.0
  0
LINE
  8
0
 62
     0
 10
248.263
 20
47.2006
 30
0.0
 11
249.089
 21
47.2006
 31
0.0
  0
LINE
  8
0
 62
     0
 10
249.089
 20
47.2006
 30
0.0
 11
249.089
 21
40.9303
 31
0.0
  0
LINE
  8
0
 62
     0
 10
249.089
 20
40.9303
 30
0.0
 11
250.813
 21
40.9303
 31
0.0
  0
LINE
  8
0
 62
     0
 10
250.813
 20
40.9303
 30
0.0
 11
250.813
 21
39.7302
 31
0.0
  0
LINE
  8
0
 62
     0
 10
250.813
 20
39.7302
 30
0.0
 11
253.962
 21
39.7302
 31
0.0
  0
LINE
  8
0
 62
     0
 10
253.962
 20
39.7302
 30
0.0
 11
253.962
 21
40.9303
 31
0.0
  0
LINE
  8
0
 62
     0
 10
253.962
 20
40.9303
 30
0.0
 11
255.688
 21
40.9303
 31
0.0
  0
LINE
  8
0
 62
     0
 10
255.688
 20
40.9303
 30
0.0
 11
255.688
 21
45.3993
 31
0.0
  0
LINE
  8
0
 62
     0
 10
255.688
 20
45.3993
 30
0.0
 11
257.362
 21
45.3993
 31
0.0
  0
LINE
  8
0
 62
     0
 10
257.362
 20
45.3993
 30
0.0
 11
257.362
 21
40.7003
 31
0.0
  0
LINE
  8
0
 62
     0
 10
257.362
 20
40.7003
 30
0.0
 11
271.213
 21
40.7003
 31
0.0
  0
LINE
  8
0
 62
     0
 10
271.213
 20
40.7003
 30
0.0
 11
271.213
 21
45.3993
 31
0.0
  0
LINE
  8
0
 62
     0
 10
271.213
 20
45.3993
 30
0.0
 11
272.887
 21
45.3993
 31
0.0
  0
LINE
  8
0
 62
     0
 10
272.887
 20
45.3993
 30
0.0
 11
272.887
 21
40.9303
 31
0.0
  0
LINE
  8
0
 62
     0
 10
272.887
 20
40.9303
 30
0.0
 11
274.613
 21
40.9303
 31
0.0
  0
LINE
  8
0
 62
     0
 10
274.613
 20
40.9303
 30
0.0
 11
274.613
 21
39.7302
 31
0.0
  0
LINE
  8
0
 62
     0
 10
274.613
 20
39.7302
 30
0.0
 11
277.763
 21
39.7302
 31
0.0
  0
LINE
  8
0
 62
     0
 10
277.763
 20
39.7302
 30
0.0
 11
277.763
 21
40.9303
 31
0.0
  0
LINE
  8
0
 62
     0
 10
277.763
 20
40.9303
 30
0.0
 11
279.488
 21
40.9303
 31
0.0
  0
LINE
  8
0
 62
     0
 10
279.488
 20
40.9303
 30
0.0
 11
279.488
 21
47.2006
 31
0.0
  0
LINE
  8
0
 62
     0
 10
279.488
 20
47.2006
 30
0.0
 11
280.312
 21
47.2006
 31
0.0
  0
LINE
  8
0
 62
     0
 10
280.312
 20
47.2006
 30
0.0
 11
280.312
 21
49.8507
 31
0.0
  0
LINE
  8
0
 62
     0
 10
280.312
 20
49.8507
 30
0.0
 11
279.488
 21
49.8507
 31
0.0
  0
LINE
  8
0
 62
     0
 10
279.488
 20
49.8507
 30
0.0
 11
279.488
 21
53.0793
 31
0.0
  0
LINE
  8
0
 62
     0
 10
279.488
 20
53.0793
 30
0.0
 11
272.887
 21
53.0793
 31
0.0
  0
LINE
  8
0
 62
     0
 10
272.887
 20
53.0793
 30
0.0
 11
272.887
 21
49.8507
 31
0.0
  0
LINE
  8
0
 62
     0
 10
272.887
 20
49.8507
 30
0.0
 11
271.213
 21
49.8507
 31
0.0
  0
LINE
  8
0
 62
     0
 10
271.213
 20
49.8507
 30
0.0
 11
271.213
 21
54.5497
 31
0.0
  0
LINE
  8
0
 62
     0
 10
271.213
 20
54.5497
 30
0.0
 11
257.362
 21
54.5497
 31
0.0
  0
LINE
  8
0
 62
     0
 10
9.71381
 20
54.5497
 30
0.0
 11
23.5631
 21
54.5497
 31
0.0
  0
LINE
  8
0
 62
     0
 10
23.5631
 20
54.5497
 30
0.0
 11
23.5631
 21
40.7003
 31
0.0
  0
LINE
  8
0
 62
     0
 10
23.5631
 20
40.7003
 30
0.0
 11
9.71381
 21
40.7003
 31
0.0
  0
LINE
  8
0
 62
     0
 10
9.71381
 20
40.7003
 30
0.0
 11
9.71381
 21
54.5497
 31
0.0
  0
LINE
  8
0
 62
     0
 10
35.9075
 20
54.5497
 30
0.0
 11
49.7568
 21
54.5497
 31
0.0
  0
LINE
  8
0
 62
     0
 10
49.7568
 20
54.5497
 30
0.0
 11
49.7568
 21
40.7003
 31
0.0
  0
LINE
  8
0
 62
     0
 10
49.7568
 20
40.7003
 30
0.0
 11
35.9075
 21
40.7003
 31
0.0
  0
LINE
  8
0
 62
     0
 10
35.9075
 20
40.7003
 30
0.0
 11
35.9075
 21
54.5497
 31
0.0
  0
LINE
  8
0
 62
     0
 10
54.9575
 20
54.5497
 30
0.0
 11
68.8068
 21
54.5497
 31
0.0
  0
LINE
  8
0
 62
     0
 10
68.8068
 20
54.5497
 30
0.0
 11
68.8068
 21
40.7003
 31
0.0
  0
LINE
  8
0
 62
     0
 10
68.8068
 20
40.7003
 30
0.0
 11
54.9575
 21
40.7003
 31
0.0
  0
LINE
  8
0
 62
     0
 10
54.9575
 20
40.7003
 30
0.0
 11
54.9575
 21
54.5497
 31
0.0
  0
LINE
  8
0
 62
     0
 10
74.0061
 20
54.5497
 30
0.0
 11
87.8568
 21
54.5497
 31
0.0
  0
LINE
  8
0
 62
     0
 10
87.8568
 20
54.5497
 30
0.0
 11
87.8568
 21
40.7003
 31
0.0
  0
LINE
  8
0
 62
     0
 10
87.8568
 20
40.7003
 30
0.0
 11
74.0061
 21
40.7003
 31
0.0
  0
LINE
  8
0
 62
     0
 10
74.0061
 20
40.7003
 30
0.0
 11
74.0061
 21
54.5497
 31
0.0
  0
LINE
  8
0
 62
     0
 10
93.0561
 20
54.5497
 30
0.0
 11
106.907
 21
54.5497
 31
0.0
  0
LINE
  8
0
 62
     0
 10
106.907
 20
54.5497
 30
0.0
 11
106.907
 21
40.7003
 31
0.0
  0
LINE
  8
0
 62
     0
 10
106.907
 20
40.7003
 30
0.0
 11
93.0561
 21
40.7003
 31
0.0
  0
LINE
  8
0
 62
     0
 10
93.0561
 20
40.7003
 30
0.0
 11
93.0561
 21
54.5497
 31
0.0
  0
LINE
  8
0
 62
     0
 10
112.106
 20
54.5497
 30
0.0
 11
125.957
 21
54.5497
 31
0.0
  0
LINE
  8
0
 62
     0
 10
125.957
 20
54.5497
 30
0.0
 11
125.957
 21
40.7003
 31
0.0
  0
LINE
  8
0
 62
     0
 10
125.957
 20
40.7003
 30
0.0
 11
112.106
 21
40.7003
 31
0.0
  0
LINE
  8
0
 62
     0
 10
112.106
 20
40.7003
 30
0.0
 11
112.106
 21
54.5497
 31
0.0
  0
LINE
  8
0
 62
     0
 10
131.156
 20
54.5497
 30
0.0
 11
145.007
 21
54.5497
 31
0.0
  0
LINE
  8
0
 62
     0
 10
145.007
 20
54.5497
 30
0.0
 11
145.007
 21
40.7003
 31
0.0
  0
LINE
  8
0
 62
     0
 10
145.007
 20
40.7003
 30
0.0
 11
131.156
 21
40.7003
 31
0.0
  0
LINE
  8
0
 62
     0
 10
131.156
 20
40.7003
 30
0.0
 11
131.156
 21
54.5497
 31
0.0
  0
LINE
  8
0
 62
     0
 10
150.206
 20
54.5497
 30
0.0
 11
164.058
 21
54.5497
 31
0.0
  0
LINE
  8
0
 62
     0
 10
164.058
 20
54.5497
 30
0.0
 11
164.058
 21
40.7003
 31
0.0
  0
LINE
  8
0
 62
     0
 10
164.058
 20
40.7003
 30
0.0
 11
150.206
 21
40.7003
 31
0.0
  0
LINE
  8
0
 62
     0
 10
150.206
 20
40.7003
 30
0.0
 11
150.206
 21
54.5497
 31
0.0
  0
LINE
  8
0
 62
     0
 10
169.256
 20
54.5497
 30
0.0
 11
183.108
 21
54.5497
 31
0.0
  0
LINE
  8
0
 62
     0
 10
183.108
 20
54.5497
 30
0.0
 11
183.108
 21
40.7003
 31
0.0
  0
LINE
  8
0
 62
     0
 10
183.108
 20
40.7003
 30
0.0
 11
169.256
 21
40.7003
 31
0.0
  0
LINE
  8
0
 62
     0
 10
169.256
 20
40.7003
 30
0.0
 11
169.256
 21
54.5497
 31
0.0
  0
LINE
  8
0
 62
     0
 10
188.307
 20
54.5497
 30
0.0
 11
202.157
 21
54.5497
 31
0.0
  0
LINE
  8
0
 62
     0
 10
202.157
 20
54.5497
 30
0.0
 11
202.157
 21
40.7003
 31
0.0
  0
LINE
  8
0
 62
     0
 10
202.157
 20
40.7003
 30
0.0
 11
188.307
 21
40.7003
 31
0.0
  0
LINE
  8
0
 62
     0
 10
188.307
 20
40.7003
 30
0.0
 11
188.307
 21
54.5497
 31
0.0
  0
LINE
  8
0
 62
     0
 10
207.357
 20
54.5497
 30
0.0
 11
221.207
 21
54.5497
 31
0.0
  0
LINE
  8
0
 62
     0
 10
221.207
 20
54.5497
 30
0.0
 11
221.207
 21
40.7003
 31
0.0
  0
LINE
  8
0
 62
     0
 10
221.207
 20
40.7003
 30
0.0
 11
207.357
 21
40.7003
 31
0.0
  0
LINE
  8
0
 62
     0
 10
207.357
 20
40.7003
 30
0.0
 11
207.357
 21
54.5497
 31
0.0
  0
LINE
  8
0
 62
     0
 10
226.406
 20
54.5497
 30
0.0
 11
240.257
 21
54.5497
 31
0.0
  0
LINE
  8
0
 62
     0
 10
240.257
 20
54.5497
 30
0.0
 11
240.257
 21
40.7003
 31
0.0
  0
LINE
  8
0
 62
     0
 10
240.257
 20
40.7003
 30
0.0
 11
226.406
 21
40.7003
 31
0.0
  0
LINE
  8
0
 62
     0
 10
226.406
 20
40.7003
 30
0.0
 11
226.406
 21
54.5497
 31
0.0
  0
LINE
  8
0
 62
     0
 10
128.181
 20
48.7426
 30
0.0
 11
127.854
 21
48.5743
 31
0.0
  0
LINE
  8
0
 62
     0
 10
127.854
 20
48.5743
 30
0.0
 11
127.594
 21
48.314
 31
0.0
  0
LINE
  8
0
 62
     0
 10
127.594
 20
48.314
 30
0.0
 11
127.427
 21
47.9873
 31
0.0
  0
LINE
  8
0
 62
     0
 10
127.427
 20
47.9873
 30
0.0
 11
127.369
 21
47.6236
 31
0.0
  0
LINE
  8
0
 62
     0
 10
127.369
 20
47.6236
 30
0.0
 11
127.427
 21
47.2599
 31
0.0
  0
LINE
  8
0
 62
     0
 10
127.427
 20
47.2599
 30
0.0
 11
127.594
 21
46.9332
 31
0.0
  0
LINE
  8
0
 62
     0
 10
127.594
 20
46.9332
 30
0.0
 11
127.854
 21
46.6743
 31
0.0
  0
LINE
  8
0
 62
     0
 10
127.854
 20
46.6743
 30
0.0
 11
128.181
 21
46.5074
 31
0.0
  0
LINE
  8
0
 62
     0
 10
128.181
 20
46.5074
 30
0.0
 11
128.546
 21
46.4481
 31
0.0
  0
LINE
  8
0
 62
     0
 10
128.546
 20
46.4481
 30
0.0
 11
128.909
 21
46.5074
 31
0.0
  0
LINE
  8
0
 62
     0
 10
128.909
 20
46.5074
 30
0.0
 11
129.235
 21
46.6743
 31
0.0
  0
LINE
  8
0
 62
     0
 10
129.235
 20
46.6743
 30
0.0
 11
129.494
 21
46.9332
 31
0.0
  0
LINE
  8
0
 62
     0
 10
129.494
 20
46.9332
 30
0.0
 11
129.662
 21
47.2599
 31
0.0
  0
LINE
  8
0
 62
     0
 10
129.662
 20
47.2599
 30
0.0
 11
129.72
 21
47.6236
 31
0.0
  0
LINE
  8
0
 62
     0
 10
129.72
 20
47.6236
 30
0.0
 11
129.662
 21
47.9873
 31
0.0
  0
LINE
  8
0
 62
     0
 10
129.662
 20
47.9873
 30
0.0
 11
129.494
 21
48.314
 31
0.0
  0
LINE
  8
0
 62
     0
 10
129.494
 20
48.314
 30
0.0
 11
129.235
 21
48.5743
 31
0.0
  0
LINE
  8
0
 62
     0
 10
129.235
 20
48.5743
 30
0.0
 11
128.909
 21
48.7426
 31
0.0
  0
LINE
  8
0
 62
     0
 10
128.909
 20
48.7426
 30
0.0
 11
128.546
 21
48.799
 31
0.0
  0
LINE
  8
0
 62
     0
 10
128.546
 20
48.799
 30
0.0
 11
128.181
 21
48.7426
 31
0.0
  0
LINE
  8
0
 62
     0
 10
7.33256
 20
73.5997
 30
0.0
 11
21.1832
 21
73.5997
 31
0.0
  0
LINE
  8
0
 62
     0
 10
21.1832
 20
73.5997
 30
0.0
 11
21.1832
 21
59.7489
 31
0.0
  0
LINE
  8
0
 62
     0
 10
21.1832
 20
59.7489
 30
0.0
 11
7.33256
 21
59.7489
 31
0.0
  0
LINE
  8
0
 62
     0
 10
7.33256
 20
59.7489
 30
0.0
 11
7.33256
 21
73.5997
 31
0.0
  0
LINE
  8
0
 62
     0
 10
31.1437
 20
73.5997
 30
0.0
 11
44.9943
 21
73.5997
 31
0.0
  0
LINE
  8
0
 62
     0
 10
44.9943
 20
73.5997
 30
0.0
 11
44.9943
 21
59.7489
 31
0.0
  0
LINE
  8
0
 62
     0
 10
44.9943
 20
59.7489
 30
0.0
 11
31.1437
 21
59.7489
 31
0.0
  0
LINE
  8
0
 62
     0
 10
31.1437
 20
59.7489
 30
0.0
 11
31.1437
 21
73.5997
 31
0.0
  0
LINE
  8
0
 62
     0
 10
50.195
 20
73.5997
 30
0.0
 11
64.0443
 21
73.5997
 31
0.0
  0
LINE
  8
0
 62
     0
 10
64.0443
 20
73.5997
 30
0.0
 11
64.0443
 21
59.7489
 31
0.0
  0
LINE
  8
0
 62
     0
 10
64.0443
 20
59.7489
 30
0.0
 11
50.195
 21
59.7489
 31
0.0
  0
LINE
  8
0
 62
     0
 10
50.195
 20
59.7489
 30
0.0
 11
50.195
 21
73.5997
 31
0.0
  0
LINE
  8
0
 62
     0
 10
69.245
 20
73.5997
 30
0.0
 11
83.0943
 21
73.5997
 31
0.0
  0
LINE
  8
0
 62
     0
 10
83.0943
 20
73.5997
 30
0.0
 11
83.0943
 21
59.7489
 31
0.0
  0
LINE
  8
0
 62
     0
 10
83.0943
 20
59.7489
 30
0.0
 11
69.245
 21
59.7489
 31
0.0
  0
LINE
  8
0
 62
     0
 10
69.245
 20
59.7489
 30
0.0
 11
69.245
 21
73.5997
 31
0.0
  0
LINE
  8
0
 62
     0
 10
88.295
 20
73.5997
 30
0.0
 11
102.144
 21
73.5997
 31
0.0
  0
LINE
  8
0
 62
     0
 10
102.144
 20
73.5997
 30
0.0
 11
102.144
 21
59.7489
 31
0.0
  0
LINE
  8
0
 62
     0
 10
102.144
 20
59.7489
 30
0.0
 11
88.295
 21
59.7489
 31
0.0
  0
LINE
  8
0
 62
     0
 10
88.295
 20
59.7489
 30
0.0
 11
88.295
 21
73.5997
 31
0.0
  0
LINE
  8
0
 62
     0
 10
107.345
 20
73.5997
 30
0.0
 11
121.194
 21
73.5997
 31
0.0
  0
LINE
  8
0
 62
     0
 10
121.194
 20
73.5997
 30
0.0
 11
121.194
 21
59.7489
 31
0.0
  0
LINE
  8
0
 62
     0
 10
121.194
 20
59.7489
 30
0.0
 11
107.345
 21
59.7489
 31
0.0
  0
LINE
  8
0
 62
     0
 10
107.345
 20
59.7489
 30
0.0
 11
107.345
 21
73.5997
 31
0.0
  0
LINE
  8
0
 62
     0
 10
126.394
 20
73.5997
 30
0.0
 11
140.244
 21
73.5997
 31
0.0
  0
LINE
  8
0
 62
     0
 10
140.244
 20
73.5997
 30
0.0
 11
140.244
 21
59.7489
 31
0.0
  0
LINE
  8
0
 62
     0
 10
140.244
 20
59.7489
 30
0.0
 11
126.394
 21
59.7489
 31
0.0
  0
LINE
  8
0
 62
     0
 10
126.394
 20
59.7489
 30
0.0
 11
126.394
 21
73.5997
 31
0.0
  0
LINE
  8
0
 62
     0
 10
145.445
 20
73.5997
 30
0.0
 11
159.294
 21
73.5997
 31
0.0
  0
LINE
  8
0
 62
     0
 10
159.294
 20
73.5997
 30
0.0
 11
159.294
 21
59.7489
 31
0.0
  0
LINE
  8
0
 62
     0
 10
159.294
 20
59.7489
 30
0.0
 11
145.445
 21
59.7489
 31
0.0
  0
LINE
  8
0
 62
     0
 10
145.445
 20
59.7489
 30
0.0
 11
145.445
 21
73.5997
 31
0.0
  0
LINE
  8
0
 62
     0
 10
164.495
 20
73.5997
 30
0.0
 11
178.344
 21
73.5997
 31
0.0
  0
LINE
  8
0
 62
     0
 10
178.344
 20
73.5997
 30
0.0
 11
178.344
 21
59.7489
 31
0.0
  0
LINE
  8
0
 62
     0
 10
178.344
 20
59.7489
 30
0.0
 11
164.495
 21
59.7489
 31
0.0
  0
LINE
  8
0
 62
     0
 10
164.495
 20
59.7489
 30
0.0
 11
164.495
 21
73.5997
 31
0.0
  0
LINE
  8
0
 62
     0
 10
183.544
 20
73.5997
 30
0.0
 11
197.394
 21
73.5997
 31
0.0
  0
LINE
  8
0
 62
     0
 10
197.394
 20
73.5997
 30
0.0
 11
197.394
 21
59.7489
 31
0.0
  0
LINE
  8
0
 62
     0
 10
197.394
 20
59.7489
 30
0.0
 11
183.544
 21
59.7489
 31
0.0
  0
LINE
  8
0
 62
     0
 10
183.544
 20
59.7489
 30
0.0
 11
183.544
 21
73.5997
 31
0.0
  0
LINE
  8
0
 62
     0
 10
202.594
 20
73.5997
 30
0.0
 11
216.444
 21
73.5997
 31
0.0
  0
LINE
  8
0
 62
     0
 10
216.444
 20
73.5997
 30
0.0
 11
216.444
 21
59.7489
 31
0.0
  0
LINE
  8
0
 62
     0
 10
216.444
 20
59.7489
 30
0.0
 11
202.594
 21
59.7489
 31
0.0
  0
LINE
  8
0
 62
     0
 10
202.594
 20
59.7489
 30
0.0
 11
202.594
 21
73.5997
 31
0.0
  0
LINE
  8
0
 62
     0
 10
221.644
 20
73.5997
 30
0.0
 11
235.494
 21
73.5997
 31
0.0
  0
LINE
  8
0
 62
     0
 10
235.494
 20
73.5997
 30
0.0
 11
235.494
 21
59.7489
 31
0.0
  0
LINE
  8
0
 62
     0
 10
235.494
 20
59.7489
 30
0.0
 11
221.644
 21
59.7489
 31
0.0
  0
LINE
  8
0
 62
     0
 10
221.644
 20
59.7489
 30
0.0
 11
221.644
 21
73.5997
 31
0.0
  0
LINE
  8
0
 62
     0
 10
240.695
 20
73.5997
 30
0.0
 11
254.544
 21
73.5997
 31
0.0
  0
LINE
  8
0
 62
     0
 10
254.544
 20
73.5997
 30
0.0
 11
254.544
 21
59.7489
 31
0.0
  0
LINE
  8
0
 62
     0
 10
254.544
 20
59.7489
 30
0.0
 11
240.695
 21
59.7489
 31
0.0
  0
LINE
  8
0
 62
     0
 10
240.695
 20
59.7489
 30
0.0
 11
240.695
 21
73.5997
 31
0.0
  0
LINE
  8
0
 62
     0
 10
264.506
 20
73.5997
 30
0.0
 11
278.357
 21
73.5997
 31
0.0
  0
LINE
  8
0
 62
     0
 10
278.357
 20
73.5997
 30
0.0
 11
278.357
 21
59.7489
 31
0.0
  0
LINE
  8
0
 62
     0
 10
278.357
 20
59.7489
 30
0.0
 11
264.506
 21
59.7489
 31
0.0
  0
LINE
  8
0
 62
     0
 10
264.506
 20
59.7489
 30
0.0
 11
264.506
 21
73.5997
 31
0.0
  0
LINE
  8
0
 62
     0
 10
25.1823
 20
68.1411
 30
0.0
 11
24.8543
 21
67.9746
 31
0.0
  0
LINE
  8
0
 62
     0
 10
24.8543
 20
67.9746
 30
0.0
 11
24.5952
 21
67.7153
 31
0.0
  0
LINE
  8
0
 62
     0
 10
24.5952
 20
67.7153
 30
0.0
 11
24.4271
 21
67.3876
 31
0.0
  0
LINE
  8
0
 62
     0
 10
24.4271
 20
67.3876
 30
0.0
 11
24.3706
 21
67.0235
 31
0.0
  0
LINE
  8
0
 62
     0
 10
24.3706
 20
67.0235
 30
0.0
 11
24.4271
 21
66.6598
 31
0.0
  0
LINE
  8
0
 62
     0
 10
24.4271
 20
66.6598
 30
0.0
 11
24.5952
 21
66.3346
 31
0.0
  0
LINE
  8
0
 62
     0
 10
24.5952
 20
66.3346
 30
0.0
 11
24.8543
 21
66.0728
 31
0.0
  0
LINE
  8
0
 62
     0
 10
24.8543
 20
66.0728
 30
0.0
 11
25.1823
 21
65.9059
 31
0.0
  0
LINE
  8
0
 62
     0
 10
25.1823
 20
65.9059
 30
0.0
 11
25.5461
 21
65.8495
 31
0.0
  0
LINE
  8
0
 62
     0
 10
25.5461
 20
65.8495
 30
0.0
 11
25.9085
 21
65.9059
 31
0.0
  0
LINE
  8
0
 62
     0
 10
25.9085
 20
65.9059
 30
0.0
 11
26.2351
 21
66.0728
 31
0.0
  0
LINE
  8
0
 62
     0
 10
26.2351
 20
66.0728
 30
0.0
 11
26.4956
 21
66.3346
 31
0.0
  0
LINE
  8
0
 62
     0
 10
26.4956
 20
66.3346
 30
0.0
 11
26.6623
 21
66.6598
 31
0.0
  0
LINE
  8
0
 62
     0
 10
26.6623
 20
66.6598
 30
0.0
 11
26.7202
 21
67.0235
 31
0.0
  0
LINE
  8
0
 62
     0
 10
26.7202
 20
67.0235
 30
0.0
 11
26.6623
 21
67.3876
 31
0.0
  0
LINE
  8
0
 62
     0
 10
26.6623
 20
67.3876
 30
0.0
 11
26.4956
 21
67.7153
 31
0.0
  0
LINE
  8
0
 62
     0
 10
26.4956
 20
67.7153
 30
0.0
 11
26.2351
 21
67.9746
 31
0.0
  0
LINE
  8
0
 62
     0
 10
26.2351
 20
67.9746
 30
0.0
 11
25.9085
 21
68.1411
 31
0.0
  0
LINE
  8
0
 62
     0
 10
25.9085
 20
68.1411
 30
0.0
 11
25.5461
 21
68.2004
 31
0.0
  0
LINE
  8
0
 62
     0
 10
25.5461
 20
68.2004
 30
0.0
 11
25.1823
 21
68.1411
 31
0.0
  0
LINE
  8
0
 62
     0
 10
260.03
 20
68.1411
 30
0.0
 11
259.705
 21
67.9746
 31
0.0
  0
LINE
  8
0
 62
     0
 10
259.705
 20
67.9746
 30
0.0
 11
259.445
 21
67.7153
 31
0.0
  0
LINE
  8
0
 62
     0
 10
259.445
 20
67.7153
 30
0.0
 11
259.276
 21
67.3876
 31
0.0
  0
LINE
  8
0
 62
     0
 10
259.276
 20
67.3876
 30
0.0
 11
259.22
 21
67.0235
 31
0.0
  0
LINE
  8
0
 62
     0
 10
259.22
 20
67.0235
 30
0.0
 11
259.276
 21
66.6598
 31
0.0
  0
LINE
  8
0
 62
     0
 10
259.276
 20
66.6598
 30
0.0
 11
259.445
 21
66.3346
 31
0.0
  0
LINE
  8
0
 62
     0
 10
259.445
 20
66.3346
 30
0.0
 11
259.705
 21
66.0728
 31
0.0
  0
LINE
  8
0
 62
     0
 10
259.705
 20
66.0728
 30
0.0
 11
260.03
 21
65.9059
 31
0.0
  0
LINE
  8
0
 62
     0
 10
260.03
 20
65.9059
 30
0.0
 11
260.394
 21
65.8495
 31
0.0
  0
LINE
  8
0
 62
     0
 10
260.394
 20
65.8495
 30
0.0
 11
260.758
 21
65.9059
 31
0.0
  0
LINE
  8
0
 62
     0
 10
260.758
 20
65.9059
 30
0.0
 11
261.084
 21
66.0728
 31
0.0
  0
LINE
  8
0
 62
     0
 10
261.084
 20
66.0728
 30
0.0
 11
261.345
 21
66.3346
 31
0.0
  0
LINE
  8
0
 62
     0
 10
261.345
 20
66.3346
 30
0.0
 11
261.512
 21
66.6598
 31
0.0
  0
LINE
  8
0
 62
     0
 10
261.512
 20
66.6598
 30
0.0
 11
261.57
 21
67.0235
 31
0.0
  0
LINE
  8
0
 62
     0
 10
261.57
 20
67.0235
 30
0.0
 11
261.512
 21
67.3876
 31
0.0
  0
LINE
  8
0
 62
     0
 10
261.512
 20
67.3876
 30
0.0
 11
261.345
 21
67.7153
 31
0.0
  0
LINE
  8
0
 62
     0
 10
261.345
 20
67.7153
 30
0.0
 11
261.084
 21
67.9746
 31
0.0
  0
LINE
  8
0
 62
     0
 10
261.084
 20
67.9746
 30
0.0
 11
260.758
 21
68.1411
 31
0.0
  0
LINE
  8
0
 62
     0
 10
260.758
 20
68.1411
 30
0.0
 11
260.394
 21
68.2004
 31
0.0
  0
LINE
  8
0
 62
     0
 10
260.394
 20
68.2004
 30
0.0
 11
260.03
 21
68.1411
 31
0.0
  0
LINE
  8
0
 62
     0
 10
259.744
 20
92.6497
 30
0.0
 11
259.744
 21
87.9507
 31
0.0
  0
LINE
  8
0
 62
     0
 10
259.744
 20
87.9507
 30
0.0
 11
258.069
 21
87.9507
 31
0.0
  0
LINE
  8
0
 62
     0
 10
258.069
 20
87.9507
 30
0.0
 11
258.069
 21
91.1807
 31
0.0
  0
LINE
  8
0
 62
     0
 10
258.069
 20
91.1807
 30
0.0
 11
251.468
 21
91.1807
 31
0.0
  0
LINE
  8
0
 62
     0
 10
251.468
 20
91.1807
 30
0.0
 11
251.468
 21
87.9507
 31
0.0
  0
LINE
  8
0
 62
     0
 10
251.468
 20
87.9507
 30
0.0
 11
250.643
 21
87.9507
 31
0.0
  0
LINE
  8
0
 62
     0
 10
250.643
 20
87.9507
 30
0.0
 11
250.643
 21
85.3006
 31
0.0
  0
LINE
  8
0
 62
     0
 10
250.643
 20
85.3006
 30
0.0
 11
251.468
 21
85.3006
 31
0.0
  0
LINE
  8
0
 62
     0
 10
251.468
 20
85.3006
 30
0.0
 11
251.468
 21
79.0293
 31
0.0
  0
LINE
  8
0
 62
     0
 10
251.468
 20
79.0293
 30
0.0
 11
253.195
 21
79.0293
 31
0.0
  0
LINE
  8
0
 62
     0
 10
253.195
 20
79.0293
 30
0.0
 11
253.195
 21
77.8288
 31
0.0
  0
LINE
  8
0
 62
     0
 10
253.195
 20
77.8288
 30
0.0
 11
256.344
 21
77.8288
 31
0.0
  0
LINE
  8
0
 62
     0
 10
256.344
 20
77.8288
 30
0.0
 11
256.344
 21
79.0293
 31
0.0
  0
LINE
  8
0
 62
     0
 10
256.344
 20
79.0293
 30
0.0
 11
258.069
 21
79.0293
 31
0.0
  0
LINE
  8
0
 62
     0
 10
258.069
 20
79.0293
 30
0.0
 11
258.069
 21
83.4993
 31
0.0
  0
LINE
  8
0
 62
     0
 10
258.069
 20
83.4993
 30
0.0
 11
259.744
 21
83.4993
 31
0.0
  0
LINE
  8
0
 62
     0
 10
259.744
 20
83.4993
 30
0.0
 11
259.744
 21
78.8003
 31
0.0
  0
LINE
  8
0
 62
     0
 10
259.744
 20
78.8003
 30
0.0
 11
273.594
 21
78.8003
 31
0.0
  0
LINE
  8
0
 62
     0
 10
273.594
 20
78.8003
 30
0.0
 11
273.594
 21
83.4993
 31
0.0
  0
LINE
  8
0
 62
     0
 10
273.594
 20
83.4993
 30
0.0
 11
275.269
 21
83.4993
 31
0.0
  0
LINE
  8
0
 62
     0
 10
275.269
 20
83.4993
 30
0.0
 11
275.269
 21
79.0293
 31
0.0
  0
LINE
  8
0
 62
     0
 10
275.269
 20
79.0293
 30
0.0
 11
276.994
 21
79.0293
 31
0.0
  0
LINE
  8
0
 62
     0
 10
276.994
 20
79.0293
 30
0.0
 11
276.994
 21
77.8288
 31
0.0
  0
LINE
  8
0
 62
     0
 10
276.994
 20
77.8288
 30
0.0
 11
280.144
 21
77.8288
 31
0.0
  0
LINE
  8
0
 62
     0
 10
280.144
 20
77.8288
 30
0.0
 11
280.144
 21
79.0293
 31
0.0
  0
LINE
  8
0
 62
     0
 10
280.144
 20
79.0293
 30
0.0
 11
281.868
 21
79.0293
 31
0.0
  0
LINE
  8
0
 62
     0
 10
281.868
 20
79.0293
 30
0.0
 11
281.868
 21
85.3006
 31
0.0
  0
LINE
  8
0
 62
     0
 10
281.868
 20
85.3006
 30
0.0
 11
282.695
 21
85.3006
 31
0.0
  0
LINE
  8
0
 62
     0
 10
282.695
 20
85.3006
 30
0.0
 11
282.695
 21
87.9507
 31
0.0
  0
LINE
  8
0
 62
     0
 10
282.695
 20
87.9507
 30
0.0
 11
281.868
 21
87.9507
 31
0.0
  0
LINE
  8
0
 62
     0
 10
281.868
 20
87.9507
 30
0.0
 11
281.868
 21
91.1807
 31
0.0
  0
LINE
  8
0
 62
     0
 10
281.868
 20
91.1807
 30
0.0
 11
275.269
 21
91.1807
 31
0.0
  0
LINE
  8
0
 62
     0
 10
275.269
 20
91.1807
 30
0.0
 11
275.269
 21
87.9507
 31
0.0
  0
LINE
  8
0
 62
     0
 10
275.269
 20
87.9507
 30
0.0
 11
273.594
 21
87.9507
 31
0.0
  0
LINE
  8
0
 62
     0
 10
273.594
 20
87.9507
 30
0.0
 11
273.594
 21
92.6497
 31
0.0
  0
LINE
  8
0
 62
     0
 10
273.594
 20
92.6497
 30
0.0
 11
259.744
 21
92.6497
 31
0.0
  0
LINE
  8
0
 62
     0
 10
2.57004
 20
92.6497
 30
0.0
 11
16.4193
 21
92.6497
 31
0.0
  0
LINE
  8
0
 62
     0
 10
16.4193
 20
92.6497
 30
0.0
 11
16.4193
 21
78.8003
 31
0.0
  0
LINE
  8
0
 62
     0
 10
16.4193
 20
78.8003
 30
0.0
 11
2.57004
 21
78.8003
 31
0.0
  0
LINE
  8
0
 62
     0
 10
2.57004
 20
78.8003
 30
0.0
 11
2.57004
 21
92.6497
 31
0.0
  0
LINE
  8
0
 62
     0
 10
21.6201
 20
92.6497
 30
0.0
 11
35.4693
 21
92.6497
 31
0.0
  0
LINE
  8
0
 62
     0
 10
35.4693
 20
92.6497
 30
0.0
 11
35.4693
 21
78.8003
 31
0.0
  0
LINE
  8
0
 62
     0
 10
35.4693
 20
78.8003
 30
0.0
 11
21.6201
 21
78.8003
 31
0.0
  0
LINE
  8
0
 62
     0
 10
21.6201
 20
78.8003
 30
0.0
 11
21.6201
 21
92.6497
 31
0.0
  0
LINE
  8
0
 62
     0
 10
40.67
 20
92.6497
 30
0.0
 11
54.5193
 21
92.6497
 31
0.0
  0
LINE
  8
0
 62
     0
 10
54.5193
 20
92.6497
 30
0.0
 11
54.5193
 21
78.8003
 31
0.0
  0
LINE
  8
0
 62
     0
 10
54.5193
 20
78.8003
 30
0.0
 11
40.67
 21
78.8003
 31
0.0
  0
LINE
  8
0
 62
     0
 10
40.67
 20
78.8003
 30
0.0
 11
40.67
 21
92.6497
 31
0.0
  0
LINE
  8
0
 62
     0
 10
59.72
 20
92.6497
 30
0.0
 11
73.5693
 21
92.6497
 31
0.0
  0
LINE
  8
0
 62
     0
 10
73.5693
 20
92.6497
 30
0.0
 11
73.5693
 21
78.8003
 31
0.0
  0
LINE
  8
0
 62
     0
 10
73.5693
 20
78.8003
 30
0.0
 11
59.72
 21
78.8003
 31
0.0
  0
LINE
  8
0
 62
     0
 10
59.72
 20
78.8003
 30
0.0
 11
59.72
 21
92.6497
 31
0.0
  0
LINE
  8
0
 62
     0
 10
78.7686
 20
92.6497
 30
0.0
 11
92.6193
 21
92.6497
 31
0.0
  0
LINE
  8
0
 62
     0
 10
92.6193
 20
92.6497
 30
0.0
 11
92.6193
 21
78.8003
 31
0.0
  0
LINE
  8
0
 62
     0
 10
92.6193
 20
78.8003
 30
0.0
 11
78.7686
 21
78.8003
 31
0.0
  0
LINE
  8
0
 62
     0
 10
78.7686
 20
78.8003
 30
0.0
 11
78.7686
 21
92.6497
 31
0.0
  0
LINE
  8
0
 62
     0
 10
97.8186
 20
92.6497
 30
0.0
 11
111.669
 21
92.6497
 31
0.0
  0
LINE
  8
0
 62
     0
 10
111.669
 20
92.6497
 30
0.0
 11
111.669
 21
78.8003
 31
0.0
  0
LINE
  8
0
 62
     0
 10
111.669
 20
78.8003
 30
0.0
 11
97.8186
 21
78.8003
 31
0.0
  0
LINE
  8
0
 62
     0
 10
97.8186
 20
78.8003
 30
0.0
 11
97.8186
 21
92.6497
 31
0.0
  0
LINE
  8
0
 62
     0
 10
116.87
 20
92.6497
 30
0.0
 11
130.719
 21
92.6497
 31
0.0
  0
LINE
  8
0
 62
     0
 10
130.719
 20
92.6497
 30
0.0
 11
130.719
 21
78.8003
 31
0.0
  0
LINE
  8
0
 62
     0
 10
130.719
 20
78.8003
 30
0.0
 11
116.87
 21
78.8003
 31
0.0
  0
LINE
  8
0
 62
     0
 10
116.87
 20
78.8003
 30
0.0
 11
116.87
 21
92.6497
 31
0.0
  0
LINE
  8
0
 62
     0
 10
135.919
 20
92.6497
 30
0.0
 11
149.769
 21
92.6497
 31
0.0
  0
LINE
  8
0
 62
     0
 10
149.769
 20
92.6497
 30
0.0
 11
149.769
 21
78.8003
 31
0.0
  0
LINE
  8
0
 62
     0
 10
149.769
 20
78.8003
 30
0.0
 11
135.919
 21
78.8003
 31
0.0
  0
LINE
  8
0
 62
     0
 10
135.919
 20
78.8003
 30
0.0
 11
135.919
 21
92.6497
 31
0.0
  0
LINE
  8
0
 62
     0
 10
154.969
 20
92.6497
 30
0.0
 11
168.819
 21
92.6497
 31
0.0
  0
LINE
  8
0
 62
     0
 10
168.819
 20
92.6497
 30
0.0
 11
168.819
 21
78.8003
 31
0.0
  0
LINE
  8
0
 62
     0
 10
168.819
 20
78.8003
 30
0.0
 11
154.969
 21
78.8003
 31
0.0
  0
LINE
  8
0
 62
     0
 10
154.969
 20
78.8003
 30
0.0
 11
154.969
 21
92.6497
 31
0.0
  0
LINE
  8
0
 62
     0
 10
174.019
 20
92.6497
 30
0.0
 11
187.869
 21
92.6497
 31
0.0
  0
LINE
  8
0
 62
     0
 10
187.869
 20
92.6497
 30
0.0
 11
187.869
 21
78.8003
 31
0.0
  0
LINE
  8
0
 62
     0
 10
187.869
 20
78.8003
 30
0.0
 11
174.019
 21
78.8003
 31
0.0
  0
LINE
  8
0
 62
     0
 10
174.019
 20
78.8003
 30
0.0
 11
174.019
 21
92.6497
 31
0.0
  0
LINE
  8
0
 62
     0
 10
193.07
 20
92.6497
 30
0.0
 11
206.919
 21
92.6497
 31
0.0
  0
LINE
  8
0
 62
     0
 10
206.919
 20
92.6497
 30
0.0
 11
206.919
 21
78.8003
 31
0.0
  0
LINE
  8
0
 62
     0
 10
206.919
 20
78.8003
 30
0.0
 11
193.07
 21
78.8003
 31
0.0
  0
LINE
  8
0
 62
     0
 10
193.07
 20
78.8003
 30
0.0
 11
193.07
 21
92.6497
 31
0.0
  0
LINE
  8
0
 62
     0
 10
212.12
 20
92.6497
 30
0.0
 11
225.969
 21
92.6497
 31
0.0
  0
LINE
  8
0
 62
     0
 10
225.969
 20
92.6497
 30
0.0
 11
225.969
 21
78.8003
 31
0.0
  0
LINE
  8
0
 62
     0
 10
225.969
 20
78.8003
 30
0.0
 11
212.12
 21
78.8003
 31
0.0
  0
LINE
  8
0
 62
     0
 10
212.12
 20
78.8003
 30
0.0
 11
212.12
 21
92.6497
 31
0.0
  0
LINE
  8
0
 62
     0
 10
231.169
 20
92.6497
 30
0.0
 11
245.019
 21
92.6497
 31
0.0
  0
LINE
  8
0
 62
     0
 10
245.019
 20
92.6497
 30
0.0
 11
245.019
 21
78.8003
 31
0.0
  0
LINE
  8
0
 62
     0
 10
245.019
 20
78.8003
 30
0.0
 11
231.169
 21
78.8003
 31
0.0
  0
LINE
  8
0
 62
     0
 10
231.169
 20
78.8003
 30
0.0
 11
231.169
 21
92.6497
 31
0.0
  0
ENDSEC
  0
EOF
