<?xml version="1.0" encoding="UTF-8" standalone="no"?>
<!-- Generated by SVGo -->

<svg
   xmlns:dc="http://purl.org/dc/elements/1.1/"
   xmlns:cc="http://creativecommons.org/ns#"
   xmlns:rdf="http://www.w3.org/1999/02/22-rdf-syntax-ns#"
   xmlns:svg="http://www.w3.org/2000/svg"
   xmlns="http://www.w3.org/2000/svg"
   xmlns:sodipodi="http://sodipodi.sourceforge.net/DTD/sodipodi-0.dtd"
   xmlns:inkscape="http://www.inkscape.org/namespaces/inkscape"
   width="295.752mm"
   height="105.252mm"
   viewBox="0.000 0.000 295.752 105.252"
   id="svg2"
   version="1.1"
   inkscape:version="0.91 r13725"
   sodipodi:docname="fd944c9e6d63d7b3776498edd93fa76db0d39dd4_switch.svg">
  <metadata
     id="metadata144">
    <rdf:RDF>
      <cc:Work
         rdf:about="">
        <dc:format>image/svg+xml</dc:format>
        <dc:type
           rdf:resource="http://purl.org/dc/dcmitype/StillImage" />
      </cc:Work>
    </rdf:RDF>
  </metadata>
  <defs
     id="defs142" />
  <sodipodi:namedview
     pagecolor="#ffffff"
     bordercolor="#666666"
     borderopacity="1"
     objecttolerance="10"
     gridtolerance="10"
     guidetolerance="10"
     inkscape:pageopacity="0"
     inkscape:pageshadow="2"
     inkscape:window-width="1060"
     inkscape:window-height="945"
     id="namedview140"
     showgrid="false"
     inkscape:zoom="0.818749"
     inkscape:cx="502.70839"
     inkscape:cy="-36.278001"
     inkscape:window-x="9"
     inkscape:window-y="9"
     inkscape:window-maximized="0"
     inkscape:current-layer="svg2" />
  <polygon
     points="290.639,60.651 285.888,60.651 285.525,60.709 285.197,60.876 284.938,61.135 284.772,61.463 284.714,61.826 284.772,62.189 284.938,62.517 285.197,62.776 285.525,62.944 285.888,63.001 290.639,63.001 290.639,100.164 5.114,100.164 5.114,63.001 9.865,63.001 10.227,62.944 10.555,62.776 10.814,62.517 10.981,62.189 11.039,61.828 10.981,61.463 10.814,61.135 10.555,60.876 10.227,60.709 9.865,60.651 5.114,60.651 5.114,5.088 290.639,5.088"
     style="fill:none;stroke-width:0.050000mm;stroke:black"
     id="polygon4" />
  <polygon
     points="126.663,83.800 126.663,88.501 117.838,88.501 117.838,85.270 111.239,85.270 111.239,88.501 110.413,88.501 110.413,91.150 111.239,91.150 111.239,97.420 112.963,97.420 112.963,98.620 116.114,98.620 116.114,97.420 117.838,97.420 117.838,92.950 126.663,92.950 126.663,97.650 140.514,97.650 140.514,92.950 149.339,92.950 149.339,97.420 151.063,97.420 151.063,98.620 154.214,98.620 154.214,97.420 155.938,97.420 155.938,91.150 156.764,91.150 156.764,88.501 155.938,88.501 155.938,85.270 149.339,85.270 149.339,88.501 140.514,88.501 140.514,83.800"
     style="fill:none;stroke-width:0.050000mm;stroke:black"
     id="polygon6" />
  <polygon
     points="12.364,83.800 12.364,97.650 26.214,97.650 26.214,83.800"
     style="fill:none;stroke-width:0.050000mm;stroke:black"
     id="polygon8" />
  <polygon
     points="50.464,83.800 50.464,97.650 64.314,97.650 64.314,83.800"
     style="fill:none;stroke-width:0.050000mm;stroke:black"
     id="polygon10" />
  <polygon
     points="69.514,83.800 69.514,97.650 83.364,97.650 83.364,83.800"
     style="fill:none;stroke-width:0.050000mm;stroke:black"
     id="polygon12" />
  <polygon
     points="88.564,83.800 88.564,97.650 102.413,97.650 102.413,83.800"
     style="fill:none;stroke-width:0.050000mm;stroke:black"
     id="polygon14" />
  <polygon
     points="164.762,83.800 164.762,97.650 178.613,97.650 178.613,83.800"
     style="fill:none;stroke-width:0.050000mm;stroke:black"
     id="polygon16" />
  <polygon
     points="183.813,83.800 183.813,97.650 197.663,97.650 197.663,83.800"
     style="fill:none;stroke-width:0.050000mm;stroke:black"
     id="polygon18" />
  <polygon
     points="202.863,83.800 202.863,97.650 216.714,97.650 216.714,83.800"
     style="fill:none;stroke-width:0.050000mm;stroke:black"
     id="polygon20" />
  <polygon
     points="267.156,83.800 267.156,97.650 281.006,97.650 281.006,83.800"
     style="fill:none;stroke-width:0.050000mm;stroke:black"
     id="polygon22" />
  <polygon
     points="7.601,64.751 7.601,78.600 21.451,78.600 21.451,64.751"
     style="fill:none;stroke-width:0.050000mm;stroke:black"
     id="polygon24" />
  <polygon
     points="29.032,64.751 29.032,78.600 42.882,78.600 42.882,64.751"
     style="fill:none;stroke-width:0.050000mm;stroke:black"
     id="polygon26" />
  <polygon
     points="50.464,64.751 50.464,78.600 64.314,78.600 64.314,64.751"
     style="fill:none;stroke-width:0.050000mm;stroke:black"
     id="polygon28" />
  <polygon
     points="69.514,64.751 69.514,78.600 83.364,78.600 83.364,64.751"
     style="fill:none;stroke-width:0.050000mm;stroke:black"
     id="polygon30" />
  <polygon
     points="88.564,64.751 88.564,78.600 102.413,78.600 102.413,64.751"
     style="fill:none;stroke-width:0.050000mm;stroke:black"
     id="polygon32" />
  <polygon
     points="107.614,64.751 107.614,78.600 121.463,78.600 121.463,64.751"
     style="fill:none;stroke-width:0.050000mm;stroke:black"
     id="polygon34" />
  <polygon
     points="126.663,64.751 126.663,78.600 140.514,78.600 140.514,64.751"
     style="fill:none;stroke-width:0.050000mm;stroke:black"
     id="polygon36" />
  <polygon
     points="145.714,64.751 145.714,78.600 159.563,78.600 159.563,64.751"
     style="fill:none;stroke-width:0.050000mm;stroke:black"
     id="polygon38" />
  <polygon
     points="164.764,64.751 164.764,78.600 178.613,78.600 178.613,64.751"
     style="fill:none;stroke-width:0.050000mm;stroke:black"
     id="polygon40" />
  <polygon
     points="183.813,64.751 183.813,78.600 197.663,78.600 197.663,64.751"
     style="fill:none;stroke-width:0.050000mm;stroke:black"
     id="polygon42" />
  <polygon
     points="202.863,64.751 202.863,78.600 216.714,78.600 216.714,64.751"
     style="fill:none;stroke-width:0.050000mm;stroke:black"
     id="polygon44" />
  <polygon
     points="221.913,64.751 221.913,78.600 235.764,78.600 235.764,64.751"
     style="fill:none;stroke-width:0.050000mm;stroke:black"
     id="polygon46" />
  <polygon
     points="243.344,64.751 243.344,78.600 257.195,78.600 257.195,64.751"
     style="fill:none;stroke-width:0.050000mm;stroke:black"
     id="polygon48" />
  <polygon
     points="269.538,64.751 269.538,78.600 283.388,78.600 283.388,64.751"
     style="fill:none;stroke-width:0.050000mm;stroke:black"
     id="polygon50" />
  <polygon
     points="262.394,45.701 262.394,50.400 260.719,50.400 260.719,47.171 254.120,47.171 254.120,50.400 253.295,50.400 253.295,53.050 254.120,53.050 254.120,59.320 255.844,59.320 255.844,60.520 258.993,60.520 258.993,59.320 260.719,59.320 260.719,54.850 262.394,54.850 262.394,59.550 276.244,59.550 276.244,54.850 277.919,54.850 277.919,59.320 279.644,59.320 279.644,60.520 282.794,60.520 282.794,59.320 284.519,59.320 284.519,53.050 285.344,53.050 285.344,50.400 284.519,50.400 284.519,47.171 277.919,47.171 277.919,50.400 276.244,50.400 276.244,45.701"
     style="fill:none;stroke-width:0.050000mm;stroke:black"
     id="polygon52" />
  <polygon
     points="14.745,45.701 14.745,59.550 28.595,59.550 28.595,45.701"
     style="fill:none;stroke-width:0.050000mm;stroke:black"
     id="polygon54" />
  <polygon
     points="40.939,45.701 40.939,59.550 54.788,59.550 54.788,45.701"
     style="fill:none;stroke-width:0.050000mm;stroke:black"
     id="polygon56" />
  <polygon
     points="59.989,45.701 59.989,59.550 73.838,59.550 73.838,45.701"
     style="fill:none;stroke-width:0.050000mm;stroke:black"
     id="polygon58" />
  <polygon
     points="79.038,45.701 79.038,59.550 92.888,59.550 92.888,45.701"
     style="fill:none;stroke-width:0.050000mm;stroke:black"
     id="polygon60" />
  <polygon
     points="98.088,45.701 98.088,59.550 111.938,59.550 111.938,45.701"
     style="fill:none;stroke-width:0.050000mm;stroke:black"
     id="polygon62" />
  <polygon
     points="117.138,45.701 117.138,59.550 130.988,59.550 130.988,45.701"
     style="fill:none;stroke-width:0.050000mm;stroke:black"
     id="polygon64" />
  <polygon
     points="136.188,45.701 136.188,59.550 150.038,59.550 150.038,45.701"
     style="fill:none;stroke-width:0.050000mm;stroke:black"
     id="polygon66" />
  <polygon
     points="155.238,45.701 155.238,59.550 169.089,59.550 169.089,45.701"
     style="fill:none;stroke-width:0.050000mm;stroke:black"
     id="polygon68" />
  <polygon
     points="174.288,45.701 174.288,59.550 188.139,59.550 188.139,45.701"
     style="fill:none;stroke-width:0.050000mm;stroke:black"
     id="polygon70" />
  <polygon
     points="193.339,45.701 193.339,59.550 207.188,59.550 207.188,45.701"
     style="fill:none;stroke-width:0.050000mm;stroke:black"
     id="polygon72" />
  <polygon
     points="212.389,45.701 212.389,59.550 226.238,59.550 226.238,45.701"
     style="fill:none;stroke-width:0.050000mm;stroke:black"
     id="polygon74" />
  <polygon
     points="231.438,45.701 231.438,59.550 245.288,59.550 245.288,45.701"
     style="fill:none;stroke-width:0.050000mm;stroke:black"
     id="polygon76" />
  <polygon
     points="133.212,51.508 132.885,51.675 132.625,51.936 132.459,52.263 132.401,52.626 132.459,52.990 132.625,53.317 132.885,53.576 133.212,53.743 133.577,53.802 133.940,53.743 134.267,53.576 134.526,53.317 134.694,52.990 134.752,52.626 134.694,52.263 134.526,51.936 134.267,51.675 133.940,51.508 133.577,51.451"
     style="fill:none;stroke-width:0.050000mm;stroke:black"
     id="polygon78" />
  <polygon
     points="12.364,26.651 12.364,40.501 26.214,40.501 26.214,26.651"
     style="fill:none;stroke-width:0.050000mm;stroke:black"
     id="polygon80" />
  <polygon
     points="36.175,26.651 36.175,40.501 50.026,40.501 50.026,26.651"
     style="fill:none;stroke-width:0.050000mm;stroke:black"
     id="polygon82" />
  <polygon
     points="55.226,26.651 55.226,40.501 69.076,40.501 69.076,26.651"
     style="fill:none;stroke-width:0.050000mm;stroke:black"
     id="polygon84" />
  <polygon
     points="74.276,26.651 74.276,40.501 88.126,40.501 88.126,26.651"
     style="fill:none;stroke-width:0.050000mm;stroke:black"
     id="polygon86" />
  <polygon
     points="93.326,26.651 93.326,40.501 107.175,40.501 107.175,26.651"
     style="fill:none;stroke-width:0.050000mm;stroke:black"
     id="polygon88" />
  <polygon
     points="112.376,26.651 112.376,40.501 126.225,40.501 126.225,26.651"
     style="fill:none;stroke-width:0.050000mm;stroke:black"
     id="polygon90" />
  <polygon
     points="131.425,26.651 131.425,40.501 145.276,40.501 145.276,26.651"
     style="fill:none;stroke-width:0.050000mm;stroke:black"
     id="polygon92" />
  <polygon
     points="150.476,26.651 150.476,40.501 164.325,40.501 164.325,26.651"
     style="fill:none;stroke-width:0.050000mm;stroke:black"
     id="polygon94" />
  <polygon
     points="169.526,26.651 169.526,40.501 183.375,40.501 183.375,26.651"
     style="fill:none;stroke-width:0.050000mm;stroke:black"
     id="polygon96" />
  <polygon
     points="188.575,26.651 188.575,40.501 202.425,40.501 202.425,26.651"
     style="fill:none;stroke-width:0.050000mm;stroke:black"
     id="polygon98" />
  <polygon
     points="207.625,26.651 207.625,40.501 221.476,40.501 221.476,26.651"
     style="fill:none;stroke-width:0.050000mm;stroke:black"
     id="polygon100" />
  <polygon
     points="226.675,26.651 226.675,40.501 240.526,40.501 240.526,26.651"
     style="fill:none;stroke-width:0.050000mm;stroke:black"
     id="polygon102" />
  <polygon
     points="245.726,26.651 245.726,40.501 259.575,40.501 259.575,26.651"
     style="fill:none;stroke-width:0.050000mm;stroke:black"
     id="polygon104" />
  <polygon
     points="269.538,26.651 269.538,40.501 283.388,40.501 283.388,26.651"
     style="fill:none;stroke-width:0.050000mm;stroke:black"
     id="polygon106" />
  <polygon
     points="30.213,32.109 29.886,32.275 29.626,32.535 29.459,32.862 29.402,33.227 29.459,33.590 29.626,33.916 29.886,34.177 30.213,34.344 30.577,34.401 30.940,34.344 31.267,34.177 31.527,33.916 31.694,33.590 31.752,33.227 31.694,32.862 31.527,32.535 31.267,32.275 30.940,32.109 30.577,32.050"
     style="fill:none;stroke-width:0.050000mm;stroke:black"
     id="polygon108" />
  <polygon
     points="265.062,32.109 264.736,32.275 264.476,32.535 264.308,32.862 264.251,33.227 264.308,33.590 264.476,33.916 264.736,34.177 265.062,34.344 265.426,34.401 265.789,34.344 266.116,34.177 266.376,33.916 266.543,33.590 266.601,33.227 266.543,32.862 266.376,32.535 266.116,32.275 265.789,32.109 265.426,32.050"
     style="fill:none;stroke-width:0.050000mm;stroke:black"
     id="polygon110" />
  <polygon
     points="264.775,7.600 264.775,12.300 263.101,12.300 263.101,9.070 256.500,9.070 256.500,12.300 255.675,12.300 255.675,14.950 256.500,14.950 256.500,21.221 258.226,21.221 258.226,22.421 261.375,22.421 261.375,21.221 263.101,21.221 263.101,16.750 264.775,16.750 264.775,21.450 278.625,21.450 278.625,16.750 280.300,16.750 280.300,21.221 282.025,21.221 282.025,22.421 285.175,22.421 285.175,21.221 286.900,21.221 286.900,14.950 287.726,14.950 287.726,12.300 286.900,12.300 286.900,9.070 280.300,9.070 280.300,12.300 278.625,12.300 278.625,7.600"
     style="fill:none;stroke-width:0.050000mm;stroke:black"
     id="polygon112" />
  <polygon
     points="7.601,7.600 7.601,21.450 21.451,21.450 21.451,7.600"
     style="fill:none;stroke-width:0.050000mm;stroke:black"
     id="polygon114" />
  <polygon
     points="26.651,7.600 26.651,21.450 40.501,21.450 40.501,7.600"
     style="fill:none;stroke-width:0.050000mm;stroke:black"
     id="polygon116" />
  <polygon
     points="45.701,7.600 45.701,21.450 59.550,21.450 59.550,7.600"
     style="fill:none;stroke-width:0.050000mm;stroke:black"
     id="polygon118" />
  <polygon
     points="64.751,7.600 64.751,21.450 78.600,21.450 78.600,7.600"
     style="fill:none;stroke-width:0.050000mm;stroke:black"
     id="polygon120" />
  <polygon
     points="83.800,7.600 83.800,21.450 97.651,21.450 97.651,7.600"
     style="fill:none;stroke-width:0.050000mm;stroke:black"
     id="polygon122" />
  <polygon
     points="102.850,7.600 102.850,21.450 116.701,21.450 116.701,7.600"
     style="fill:none;stroke-width:0.050000mm;stroke:black"
     id="polygon124" />
  <polygon
     points="121.901,7.600 121.901,21.450 135.750,21.450 135.750,7.600"
     style="fill:none;stroke-width:0.050000mm;stroke:black"
     id="polygon126" />
  <polygon
     points="140.950,7.600 140.950,21.450 154.800,21.450 154.800,7.600"
     style="fill:none;stroke-width:0.050000mm;stroke:black"
     id="polygon128" />
  <polygon
     points="160.000,7.600 160.000,21.450 173.851,21.450 173.851,7.600"
     style="fill:none;stroke-width:0.050000mm;stroke:black"
     id="polygon130" />
  <polygon
     points="179.050,7.600 179.050,21.450 192.901,21.450 192.901,7.600"
     style="fill:none;stroke-width:0.050000mm;stroke:black"
     id="polygon132" />
  <polygon
     points="198.101,7.600 198.101,21.450 211.950,21.450 211.950,7.600"
     style="fill:none;stroke-width:0.050000mm;stroke:black"
     id="polygon134" />
  <polygon
     points="217.151,7.600 217.151,21.450 231.000,21.450 231.000,7.600"
     style="fill:none;stroke-width:0.050000mm;stroke:black"
     id="polygon136" />
  <polygon
     points="236.200,7.600 236.200,21.450 250.050,21.450 250.050,7.600"
     style="fill:none;stroke-width:0.050000mm;stroke:black"
     id="polygon138" />
  <path
     style="fill:none;fill-rule:evenodd;stroke:#000000;stroke-width:0.28222221px;stroke-linecap:butt;stroke-linejoin:miter;stroke-opacity:1"
     d="m 16.200868,15.974875 4.481091,16.545569 0,21.716054 -6.893987,18.958464 5.17049,17.579665 0,43.776813"
     id="path4272"
     inkscape:connector-curvature="0" />
</svg>
