<?xml version="1.0" encoding="UTF-8" standalone="no"?>
<!-- Generated by SVGo -->

<svg
   xmlns:dc="http://purl.org/dc/elements/1.1/"
   xmlns:cc="http://creativecommons.org/ns#"
   xmlns:rdf="http://www.w3.org/1999/02/22-rdf-syntax-ns#"
   xmlns:svg="http://www.w3.org/2000/svg"
   xmlns="http://www.w3.org/2000/svg"
   xmlns:sodipodi="http://sodipodi.sourceforge.net/DTD/sodipodi-0.dtd"
   xmlns:inkscape="http://www.inkscape.org/namespaces/inkscape"
   width="295.752mm"
   height="105.252mm"
   viewBox="0.000 0.000 295.752 105.252"
   id="svg2"
   version="1.1"
   inkscape:version="0.91 r13725"
   sodipodi:docname="plate-with-columns-back-new.svg">
  <metadata
     id="metadata144">
    <rdf:RDF>
      <cc:Work
         rdf:about="">
        <dc:format>image/svg+xml</dc:format>
        <dc:type
           rdf:resource="http://purl.org/dc/dcmitype/StillImage" />
        <dc:title></dc:title>
      </cc:Work>
    </rdf:RDF>
  </metadata>
  <defs
     id="defs142" />
  <sodipodi:namedview
     pagecolor="#ffffff"
     bordercolor="#666666"
     borderopacity="1"
     objecttolerance="10"
     gridtolerance="10"
     guidetolerance="10"
     inkscape:pageopacity="0"
     inkscape:pageshadow="2"
     inkscape:window-width="1060"
     inkscape:window-height="945"
     id="namedview140"
     showgrid="false"
     inkscape:zoom="0.28947149"
     inkscape:cx="554.5731"
     inkscape:cy="282.50278"
     inkscape:window-x="9"
     inkscape:window-y="9"
     inkscape:window-maximized="0"
     inkscape:current-layer="svg2"
     showguides="false" />
  <polygon
     points="285.888,60.651 285.525,60.709 285.197,60.876 284.938,61.135 284.772,61.463 284.714,61.826 284.772,62.189 284.938,62.517 285.197,62.776 285.525,62.944 285.888,63.001 290.639,63.001 290.639,100.164 5.114,100.164 5.114,63.001 9.865,63.001 10.227,62.944 10.555,62.776 10.814,62.517 10.981,62.189 11.039,61.828 10.981,61.463 10.814,61.135 10.555,60.876 10.227,60.709 9.865,60.651 5.114,60.651 5.114,5.088 290.639,5.088 290.639,60.651 "
     style="fill:none;stroke:#000000;stroke-width:0.05mm"
     id="polygon4"
     transform="matrix(-1,0,0,1,295.753,0)" />
  <polygon
     points="126.663,88.501 117.838,88.501 117.838,85.27 111.239,85.27 111.239,88.501 110.413,88.501 110.413,91.15 111.239,91.15 111.239,97.42 112.963,97.42 112.963,98.62 116.114,98.62 116.114,97.42 117.838,97.42 117.838,92.95 126.663,92.95 126.663,97.65 140.514,97.65 140.514,92.95 149.339,92.95 149.339,97.42 151.063,97.42 151.063,98.62 154.214,98.62 154.214,97.42 155.938,97.42 155.938,91.15 156.764,91.15 156.764,88.501 155.938,88.501 155.938,85.27 149.339,85.27 149.339,88.501 140.514,88.501 140.514,83.8 126.663,83.8 "
     style="fill:none;stroke:#000000;stroke-width:0.05mm"
     id="polygon6"
     transform="matrix(-1,0,0,1,295.753,0)" />
  <polygon
     points="12.364,97.65 26.214,97.65 26.214,83.8 12.364,83.8 "
     style="fill:none;stroke:#000000;stroke-width:0.05mm"
     id="polygon8"
     transform="matrix(-1,0,0,1,295.753,0)" />
  <polygon
     points="50.464,97.65 64.314,97.65 64.314,83.8 50.464,83.8 "
     style="fill:none;stroke:#000000;stroke-width:0.05mm"
     id="polygon10"
     transform="matrix(-1,0,0,1,295.753,0)" />
  <polygon
     points="69.514,97.65 83.364,97.65 83.364,83.8 69.514,83.8 "
     style="fill:none;stroke:#000000;stroke-width:0.05mm"
     id="polygon12"
     transform="matrix(-1,0,0,1,295.753,0)" />
  <polygon
     points="88.564,97.65 102.413,97.65 102.413,83.8 88.564,83.8 "
     style="fill:none;stroke:#000000;stroke-width:0.05mm"
     id="polygon14"
     transform="matrix(-1,0,0,1,295.753,0)" />
  <polygon
     points="164.762,97.65 178.613,97.65 178.613,83.8 164.762,83.8 "
     style="fill:none;stroke:#000000;stroke-width:0.05mm"
     id="polygon16"
     transform="matrix(-1,0,0,1,295.753,0)" />
  <polygon
     points="183.813,97.65 197.663,97.65 197.663,83.8 183.813,83.8 "
     style="fill:none;stroke:#000000;stroke-width:0.05mm"
     id="polygon18"
     transform="matrix(-1,0,0,1,295.753,0)" />
  <polygon
     points="202.863,97.65 216.714,97.65 216.714,83.8 202.863,83.8 "
     style="fill:none;stroke:#000000;stroke-width:0.05mm"
     id="polygon20"
     transform="matrix(-1,0,0,1,295.753,0)" />
  <polygon
     points="267.156,97.65 281.006,97.65 281.006,83.8 267.156,83.8 "
     style="fill:none;stroke:#000000;stroke-width:0.05mm"
     id="polygon22"
     transform="matrix(-1,0,0,1,295.753,0)" />
  <polygon
     points="7.601,78.6 21.451,78.6 21.451,64.751 7.601,64.751 "
     style="fill:none;stroke:#000000;stroke-width:0.05mm"
     id="polygon24"
     transform="matrix(-1,0,0,1,295.753,0)" />
  <polygon
     points="29.032,78.6 42.882,78.6 42.882,64.751 29.032,64.751 "
     style="fill:none;stroke:#000000;stroke-width:0.05mm"
     id="polygon26"
     transform="matrix(-1,0,0,1,295.753,0)" />
  <polygon
     points="50.464,78.6 64.314,78.6 64.314,64.751 50.464,64.751 "
     style="fill:none;stroke:#000000;stroke-width:0.05mm"
     id="polygon28"
     transform="matrix(-1,0,0,1,295.753,0)" />
  <polygon
     points="69.514,78.6 83.364,78.6 83.364,64.751 69.514,64.751 "
     style="fill:none;stroke:#000000;stroke-width:0.05mm"
     id="polygon30"
     transform="matrix(-1,0,0,1,295.753,0)" />
  <polygon
     points="88.564,78.6 102.413,78.6 102.413,64.751 88.564,64.751 "
     style="fill:none;stroke:#000000;stroke-width:0.05mm"
     id="polygon32"
     transform="matrix(-1,0,0,1,295.753,0)" />
  <polygon
     points="107.614,78.6 121.463,78.6 121.463,64.751 107.614,64.751 "
     style="fill:none;stroke:#000000;stroke-width:0.05mm"
     id="polygon34"
     transform="matrix(-1,0,0,1,295.753,0)" />
  <polygon
     points="126.663,78.6 140.514,78.6 140.514,64.751 126.663,64.751 "
     style="fill:none;stroke:#000000;stroke-width:0.05mm"
     id="polygon36"
     transform="matrix(-1,0,0,1,295.753,0)" />
  <polygon
     points="145.714,78.6 159.563,78.6 159.563,64.751 145.714,64.751 "
     style="fill:none;stroke:#000000;stroke-width:0.05mm"
     id="polygon38"
     transform="matrix(-1,0,0,1,295.753,0)" />
  <polygon
     points="164.764,78.6 178.613,78.6 178.613,64.751 164.764,64.751 "
     style="fill:none;stroke:#000000;stroke-width:0.05mm"
     id="polygon40"
     transform="matrix(-1,0,0,1,295.753,0)" />
  <polygon
     points="183.813,78.6 197.663,78.6 197.663,64.751 183.813,64.751 "
     style="fill:none;stroke:#000000;stroke-width:0.05mm"
     id="polygon42"
     transform="matrix(-1,0,0,1,295.753,0)" />
  <polygon
     points="202.863,78.6 216.714,78.6 216.714,64.751 202.863,64.751 "
     style="fill:none;stroke:#000000;stroke-width:0.05mm"
     id="polygon44"
     transform="matrix(-1,0,0,1,295.753,0)" />
  <polygon
     points="221.913,78.6 235.764,78.6 235.764,64.751 221.913,64.751 "
     style="fill:none;stroke:#000000;stroke-width:0.05mm"
     id="polygon46"
     transform="matrix(-1,0,0,1,295.753,0)" />
  <polygon
     points="243.344,78.6 257.195,78.6 257.195,64.751 243.344,64.751 "
     style="fill:none;stroke:#000000;stroke-width:0.05mm"
     id="polygon48"
     transform="matrix(-1,0,0,1,295.753,0)" />
  <polygon
     points="269.538,78.6 283.388,78.6 283.388,64.751 269.538,64.751 "
     style="fill:none;stroke:#000000;stroke-width:0.05mm"
     id="polygon50"
     transform="matrix(-1,0,0,1,295.753,0)" />
  <polygon
     points="262.394,50.4 260.719,50.4 260.719,47.171 254.12,47.171 254.12,50.4 253.295,50.4 253.295,53.05 254.12,53.05 254.12,59.32 255.844,59.32 255.844,60.52 258.993,60.52 258.993,59.32 260.719,59.32 260.719,54.85 262.394,54.85 262.394,59.55 276.244,59.55 276.244,54.85 277.919,54.85 277.919,59.32 279.644,59.32 279.644,60.52 282.794,60.52 282.794,59.32 284.519,59.32 284.519,53.05 285.344,53.05 285.344,50.4 284.519,50.4 284.519,47.171 277.919,47.171 277.919,50.4 276.244,50.4 276.244,45.701 262.394,45.701 "
     style="fill:none;stroke:#000000;stroke-width:0.05mm"
     id="polygon52"
     transform="matrix(-1,0,0,1,295.753,0)" />
  <polygon
     points="14.745,59.55 28.595,59.55 28.595,45.701 14.745,45.701 "
     style="fill:none;stroke:#000000;stroke-width:0.05mm"
     id="polygon54"
     transform="matrix(-1,0,0,1,295.753,0)" />
  <polygon
     points="40.939,59.55 54.788,59.55 54.788,45.701 40.939,45.701 "
     style="fill:none;stroke:#000000;stroke-width:0.05mm"
     id="polygon56"
     transform="matrix(-1,0,0,1,295.753,0)" />
  <polygon
     points="59.989,59.55 73.838,59.55 73.838,45.701 59.989,45.701 "
     style="fill:none;stroke:#000000;stroke-width:0.05mm"
     id="polygon58"
     transform="matrix(-1,0,0,1,295.753,0)" />
  <polygon
     points="79.038,59.55 92.888,59.55 92.888,45.701 79.038,45.701 "
     style="fill:none;stroke:#000000;stroke-width:0.05mm"
     id="polygon60"
     transform="matrix(-1,0,0,1,295.753,0)" />
  <polygon
     points="98.088,59.55 111.938,59.55 111.938,45.701 98.088,45.701 "
     style="fill:none;stroke:#000000;stroke-width:0.05mm"
     id="polygon62"
     transform="matrix(-1,0,0,1,295.753,0)" />
  <polygon
     points="117.138,59.55 130.988,59.55 130.988,45.701 117.138,45.701 "
     style="fill:none;stroke:#000000;stroke-width:0.05mm"
     id="polygon64"
     transform="matrix(-1,0,0,1,295.753,0)" />
  <polygon
     points="136.188,59.55 150.038,59.55 150.038,45.701 136.188,45.701 "
     style="fill:none;stroke:#000000;stroke-width:0.05mm"
     id="polygon66"
     transform="matrix(-1,0,0,1,295.753,0)" />
  <polygon
     points="155.238,59.55 169.089,59.55 169.089,45.701 155.238,45.701 "
     style="fill:none;stroke:#000000;stroke-width:0.05mm"
     id="polygon68"
     transform="matrix(-1,0,0,1,295.753,0)" />
  <polygon
     points="174.288,59.55 188.139,59.55 188.139,45.701 174.288,45.701 "
     style="fill:none;stroke:#000000;stroke-width:0.05mm"
     id="polygon70"
     transform="matrix(-1,0,0,1,295.753,0)" />
  <polygon
     points="193.339,59.55 207.188,59.55 207.188,45.701 193.339,45.701 "
     style="fill:none;stroke:#000000;stroke-width:0.05mm"
     id="polygon72"
     transform="matrix(-1,0,0,1,295.753,0)" />
  <polygon
     points="212.389,59.55 226.238,59.55 226.238,45.701 212.389,45.701 "
     style="fill:none;stroke:#000000;stroke-width:0.05mm"
     id="polygon74"
     transform="matrix(-1,0,0,1,295.753,0)" />
  <polygon
     points="231.438,59.55 245.288,59.55 245.288,45.701 231.438,45.701 "
     style="fill:none;stroke:#000000;stroke-width:0.05mm"
     id="polygon76"
     transform="matrix(-1,0,0,1,295.753,0)" />
  <polygon
     points="132.885,51.675 132.625,51.936 132.459,52.263 132.401,52.626 132.459,52.99 132.625,53.317 132.885,53.576 133.212,53.743 133.577,53.802 133.94,53.743 134.267,53.576 134.526,53.317 134.694,52.99 134.752,52.626 134.694,52.263 134.526,51.936 134.267,51.675 133.94,51.508 133.577,51.451 133.212,51.508 "
     style="fill:none;stroke:#000000;stroke-width:0.05mm"
     id="polygon78"
     transform="matrix(-1,0,0,1,295.753,0)" />
  <polygon
     points="12.364,40.501 26.214,40.501 26.214,26.651 12.364,26.651 "
     style="fill:none;stroke:#000000;stroke-width:0.05mm"
     id="polygon80"
     transform="matrix(-1,0,0,1,295.753,0)" />
  <polygon
     points="36.175,40.501 50.026,40.501 50.026,26.651 36.175,26.651 "
     style="fill:none;stroke:#000000;stroke-width:0.05mm"
     id="polygon82"
     transform="matrix(-1,0,0,1,295.753,0)" />
  <polygon
     points="55.226,40.501 69.076,40.501 69.076,26.651 55.226,26.651 "
     style="fill:none;stroke:#000000;stroke-width:0.05mm"
     id="polygon84"
     transform="matrix(-1,0,0,1,295.753,0)" />
  <polygon
     points="74.276,40.501 88.126,40.501 88.126,26.651 74.276,26.651 "
     style="fill:none;stroke:#000000;stroke-width:0.05mm"
     id="polygon86"
     transform="matrix(-1,0,0,1,295.753,0)" />
  <polygon
     points="93.326,40.501 107.175,40.501 107.175,26.651 93.326,26.651 "
     style="fill:none;stroke:#000000;stroke-width:0.05mm"
     id="polygon88"
     transform="matrix(-1,0,0,1,295.753,0)" />
  <polygon
     points="112.376,40.501 126.225,40.501 126.225,26.651 112.376,26.651 "
     style="fill:none;stroke:#000000;stroke-width:0.05mm"
     id="polygon90"
     transform="matrix(-1,0,0,1,295.753,0)" />
  <polygon
     points="131.425,40.501 145.276,40.501 145.276,26.651 131.425,26.651 "
     style="fill:none;stroke:#000000;stroke-width:0.05mm"
     id="polygon92"
     transform="matrix(-1,0,0,1,295.753,0)" />
  <polygon
     points="150.476,40.501 164.325,40.501 164.325,26.651 150.476,26.651 "
     style="fill:none;stroke:#000000;stroke-width:0.05mm"
     id="polygon94"
     transform="matrix(-1,0,0,1,295.753,0)" />
  <polygon
     points="169.526,40.501 183.375,40.501 183.375,26.651 169.526,26.651 "
     style="fill:none;stroke:#000000;stroke-width:0.05mm"
     id="polygon96"
     transform="matrix(-1,0,0,1,295.753,0)" />
  <polygon
     points="188.575,40.501 202.425,40.501 202.425,26.651 188.575,26.651 "
     style="fill:none;stroke:#000000;stroke-width:0.05mm"
     id="polygon98"
     transform="matrix(-1,0,0,1,295.753,0)" />
  <polygon
     points="207.625,40.501 221.476,40.501 221.476,26.651 207.625,26.651 "
     style="fill:none;stroke:#000000;stroke-width:0.05mm"
     id="polygon100"
     transform="matrix(-1,0,0,1,295.753,0)" />
  <polygon
     points="226.675,40.501 240.526,40.501 240.526,26.651 226.675,26.651 "
     style="fill:none;stroke:#000000;stroke-width:0.05mm"
     id="polygon102"
     transform="matrix(-1,0,0,1,295.753,0)" />
  <polygon
     points="245.726,40.501 259.575,40.501 259.575,26.651 245.726,26.651 "
     style="fill:none;stroke:#000000;stroke-width:0.05mm"
     id="polygon104"
     transform="matrix(-1,0,0,1,295.753,0)" />
  <polygon
     points="269.538,40.501 283.388,40.501 283.388,26.651 269.538,26.651 "
     style="fill:none;stroke:#000000;stroke-width:0.05mm"
     id="polygon106"
     transform="matrix(-1,0,0,1,295.753,0)" />
  <polygon
     points="29.886,32.275 29.626,32.535 29.459,32.862 29.402,33.227 29.459,33.59 29.626,33.916 29.886,34.177 30.213,34.344 30.577,34.401 30.94,34.344 31.267,34.177 31.527,33.916 31.694,33.59 31.752,33.227 31.694,32.862 31.527,32.535 31.267,32.275 30.94,32.109 30.577,32.05 30.213,32.109 "
     style="fill:none;stroke:#000000;stroke-width:0.05mm"
     id="polygon108"
     transform="matrix(-1,0,0,1,295.753,0)" />
  <polygon
     points="264.736,32.275 264.476,32.535 264.308,32.862 264.251,33.227 264.308,33.59 264.476,33.916 264.736,34.177 265.062,34.344 265.426,34.401 265.789,34.344 266.116,34.177 266.376,33.916 266.543,33.59 266.601,33.227 266.543,32.862 266.376,32.535 266.116,32.275 265.789,32.109 265.426,32.05 265.062,32.109 "
     style="fill:none;stroke:#000000;stroke-width:0.05mm"
     id="polygon110"
     transform="matrix(-1,0,0,1,295.753,0)" />
  <polygon
     points="264.775,12.3 263.101,12.3 263.101,9.07 256.5,9.07 256.5,12.3 255.675,12.3 255.675,14.95 256.5,14.95 256.5,21.221 258.226,21.221 258.226,22.421 261.375,22.421 261.375,21.221 263.101,21.221 263.101,16.75 264.775,16.75 264.775,21.45 278.625,21.45 278.625,16.75 280.3,16.75 280.3,21.221 282.025,21.221 282.025,22.421 285.175,22.421 285.175,21.221 286.9,21.221 286.9,14.95 287.726,14.95 287.726,12.3 286.9,12.3 286.9,9.07 280.3,9.07 280.3,12.3 278.625,12.3 278.625,7.6 264.775,7.6 "
     style="fill:none;stroke:#000000;stroke-width:0.05mm"
     id="polygon112"
     transform="matrix(-1,0,0,1,295.753,0)" />
  <polygon
     points="7.601,21.45 21.451,21.45 21.451,7.6 7.601,7.6 "
     style="fill:none;stroke:#000000;stroke-width:0.05mm"
     id="polygon114"
     transform="matrix(-1,0,0,1,295.753,0)" />
  <polygon
     points="26.651,21.45 40.501,21.45 40.501,7.6 26.651,7.6 "
     style="fill:none;stroke:#000000;stroke-width:0.05mm"
     id="polygon116"
     transform="matrix(-1,0,0,1,295.753,0)" />
  <polygon
     points="45.701,21.45 59.55,21.45 59.55,7.6 45.701,7.6 "
     style="fill:none;stroke:#000000;stroke-width:0.05mm"
     id="polygon118"
     transform="matrix(-1,0,0,1,295.753,0)" />
  <polygon
     points="64.751,21.45 78.6,21.45 78.6,7.6 64.751,7.6 "
     style="fill:none;stroke:#000000;stroke-width:0.05mm"
     id="polygon120"
     transform="matrix(-1,0,0,1,295.753,0)" />
  <polygon
     points="83.8,21.45 97.651,21.45 97.651,7.6 83.8,7.6 "
     style="fill:none;stroke:#000000;stroke-width:0.05mm"
     id="polygon122"
     transform="matrix(-1,0,0,1,295.753,0)" />
  <polygon
     points="102.85,21.45 116.701,21.45 116.701,7.6 102.85,7.6 "
     style="fill:none;stroke:#000000;stroke-width:0.05mm"
     id="polygon124"
     transform="matrix(-1,0,0,1,295.753,0)" />
  <polygon
     points="121.901,21.45 135.75,21.45 135.75,7.6 121.901,7.6 "
     style="fill:none;stroke:#000000;stroke-width:0.05mm"
     id="polygon126"
     transform="matrix(-1,0,0,1,295.753,0)" />
  <polygon
     points="140.95,21.45 154.8,21.45 154.8,7.6 140.95,7.6 "
     style="fill:none;stroke:#000000;stroke-width:0.05mm"
     id="polygon128"
     transform="matrix(-1,0,0,1,295.753,0)" />
  <polygon
     points="160,21.45 173.851,21.45 173.851,7.6 160,7.6 "
     style="fill:none;stroke:#000000;stroke-width:0.05mm"
     id="polygon130"
     transform="matrix(-1,0,0,1,295.753,0)" />
  <polygon
     points="179.05,21.45 192.901,21.45 192.901,7.6 179.05,7.6 "
     style="fill:none;stroke:#000000;stroke-width:0.05mm"
     id="polygon132"
     transform="matrix(-1,0,0,1,295.753,0)" />
  <polygon
     points="198.101,21.45 211.95,21.45 211.95,7.6 198.101,7.6 "
     style="fill:none;stroke:#000000;stroke-width:0.05mm"
     id="polygon134"
     transform="matrix(-1,0,0,1,295.753,0)" />
  <polygon
     points="217.151,21.45 231,21.45 231,7.6 217.151,7.6 "
     style="fill:none;stroke:#000000;stroke-width:0.05mm"
     id="polygon136"
     transform="matrix(-1,0,0,1,295.753,0)" />
  <polygon
     points="236.2,21.45 250.05,21.45 250.05,7.6 236.2,7.6 "
     style="fill:none;stroke:#000000;stroke-width:0.05mm"
     id="polygon138"
     transform="matrix(-1,0,0,1,295.753,0)" />
  <path
     style="fill:none;fill-rule:evenodd;stroke:#ff0000;stroke-width:1.41111112;stroke-linecap:butt;stroke-linejoin:miter;stroke-miterlimit:4;stroke-dasharray:none;stroke-opacity:1"
     d="m 279.55213,15.974875 -4.48109,16.545569 0,21.716054 6.89399,18.958464 -5.17049,17.579665 0,43.776813"
     id="path4272"
     inkscape:connector-curvature="0" />
  <path
     style="fill:none;fill-rule:evenodd;stroke:#ff0000;stroke-width:1.41111112;stroke-linecap:butt;stroke-linejoin:miter;stroke-miterlimit:4;stroke-dasharray:none;stroke-opacity:1"
     d="m 261.62777,16.319575 -7.92809,16.545567 -4.13639,20.681958 9.99628,19.99256 0,60.66708"
     id="path4220"
     inkscape:connector-curvature="0" />
  <path
     style="fill:none;fill-opacity:1;stroke:#ff0000;stroke-width:1.41111112;stroke-linecap:round;stroke-miterlimit:4;stroke-dasharray:none;stroke-dashoffset:0.82700002;stroke-opacity:1"
     d="m 245.0822,13.906679 -12.46563,21.591102 -3.39054,18.049319 9.30688,17.234967 -0.6894,17.924365 0,45.500308"
     id="path4235"
     inkscape:connector-curvature="0" />
  <path
     style="fill:none;fill-opacity:1;stroke:#ff0000;stroke-width:1.41111112;stroke-linecap:round;stroke-miterlimit:4;stroke-dasharray:none;stroke-dashoffset:0.82700002;stroke-opacity:1"
     d="m 223.71084,17.008973 -9.30688,18.269064 -4.82579,17.579665 11.03038,20.681958 -1.3788,19.647862 0,41.363918"
     id="path4237"
     inkscape:connector-curvature="0" />
  <path
     style="fill:none;fill-opacity:1;stroke:#ff0000;stroke-width:1.41111112;stroke-linecap:round;stroke-miterlimit:4;stroke-dasharray:none;stroke-dashoffset:0.82700002;stroke-opacity:1"
     d="m 205.09708,16.319575 -8.27278,18.613762 -7.58339,19.992562 8.96218,16.890266 0.6894,21.371357 0,39.985118"
     id="path4239"
     inkscape:connector-curvature="0" />
  <path
     style="fill:none;fill-opacity:1;stroke:#ff0000;stroke-width:1.41111112;stroke-linecap:round;stroke-miterlimit:4;stroke-dasharray:none;stroke-dashoffset:0.82700002;stroke-opacity:1"
     d="m 185.10452,18.043071 -8.61748,16.890266 -6.20459,16.545568 9.65158,19.303162 0,61.011783"
     id="path4241"
     inkscape:connector-curvature="0" />
  <path
     style="fill:none;fill-opacity:1;stroke:#ff0000;stroke-width:1.41111112;stroke-linecap:round;stroke-miterlimit:4;stroke-dasharray:none;stroke-dashoffset:0.82700002;stroke-opacity:1"
     d="m 165.11196,15.630176 -7.58339,16.890268 -4.48109,20.337258 7.58339,18.613763 2.06819,19.99256 0,41.019215"
     id="path4243"
     inkscape:connector-curvature="0" />
  <path
     style="fill:none;fill-opacity:1;stroke:#ff0000;stroke-width:1.41111112;stroke-linecap:round;stroke-miterlimit:4;stroke-dasharray:none;stroke-dashoffset:0.82700002;stroke-opacity:1"
     d="m 148.91109,13.906679 -8.61748,21.371358 -5.51519,19.303162 6.89398,17.234966 0,62.390575"
     id="path4245"
     inkscape:connector-curvature="0" />
  <path
     style="fill:none;fill-opacity:1;stroke:#ff0000;stroke-width:1.41111112;stroke-linecap:round;stroke-miterlimit:4;stroke-dasharray:none;stroke-dashoffset:0.82700002;stroke-opacity:1"
     d="m 128.22913,15.285477 -9.30688,18.269063 -3.10229,20.33726 9.30688,17.234967 -1.0341,21.026656 0,39.985127"
     id="path4247"
     inkscape:connector-curvature="0" />
  <path
     style="fill:none;fill-opacity:1;stroke:#ff0000;stroke-width:1.41111112;stroke-linecap:round;stroke-miterlimit:4;stroke-dasharray:none;stroke-dashoffset:0.82700002;stroke-opacity:1"
     d="m 112.02827,13.217281 -12.40918,22.405457 -4.13639,15.856167 9.99628,21.716057 0.3447,16.890266 0,41.019222 0.76938,-1.33262 0.43706,1.63113"
     id="path4249"
     inkscape:connector-curvature="0" />
  <path
     style="fill:none;fill-opacity:1;stroke:#ff0000;stroke-width:1.41111112;stroke-linecap:round;stroke-miterlimit:4;stroke-dasharray:none;stroke-dashoffset:0.82700002;stroke-opacity:1"
     d="m 91.00161,15.630176 -8.96218,16.200867 -6.54929,19.992562 10.34098,19.99256 0.3447,19.303162 0,36.538123"
     id="path4251"
     inkscape:connector-curvature="0" />
  <path
     style="fill:none;fill-opacity:1;stroke:#ff0000;stroke-width:1.41111112;stroke-linecap:round;stroke-miterlimit:4;stroke-dasharray:none;stroke-dashoffset:0.82700002;stroke-opacity:1"
     d="m 75.83484,11.149085 -11.71978,22.750155 -4.48109,20.337258 6.89399,17.924365 0,57.220087"
     id="path4253"
     inkscape:connector-curvature="0" />
  <path
     style="fill:none;fill-opacity:1;stroke:#ff0000;stroke-width:1.41111112;stroke-linecap:round;stroke-miterlimit:4;stroke-dasharray:none;stroke-dashoffset:0.82700002;stroke-opacity:1"
     d="M 53.77408,13.217281 C 53.08468,14.940777 43.7778,34.588639 43.7778,34.588639 L 45.846,73.88436 44.8119,128.34685"
     id="path4255"
     inkscape:connector-curvature="0" />
  <path
     style="fill:none;fill-opacity:1;stroke:#ff0000;stroke-width:1.41111112;stroke-linecap:round;stroke-miterlimit:4;stroke-dasharray:none;stroke-dashoffset:0.82700002;stroke-opacity:1"
     d="m 24.47464,15.630176 -5.17049,17.924364 5.17049,20.33726 -5.17049,16.890267 3.79169,23.094853 -1.7235,32.74644"
     id="path4257"
     inkscape:connector-curvature="0" />
  <text
     xml:space="preserve"
     style="font-style:normal;font-variant:normal;font-weight:normal;font-stretch:normal;font-size:8.46666622px;line-height:125%;font-family:TechnicLite;-inkscape-font-specification:'TechnicLite, Normal';text-align:start;letter-spacing:0px;word-spacing:0px;writing-mode:lr-tb;text-anchor:start;fill:#000000;fill-opacity:1;stroke:none;stroke-width:1px;stroke-linecap:butt;stroke-linejoin:miter;stroke-opacity:1"
     x="275.40048"
     y="149.02882"
     id="text4259"
     sodipodi:linespacing="125%"><tspan
       sodipodi:role="line"
       id="tspan4261"
       x="275.40048"
       y="149.02882">0</tspan></text>
  <text
     xml:space="preserve"
     style="font-style:normal;font-variant:normal;font-weight:normal;font-stretch:normal;font-size:8.46666622px;line-height:125%;font-family:TechnicLite;-inkscape-font-specification:'TechnicLite, Normal';text-align:start;letter-spacing:0px;word-spacing:0px;writing-mode:lr-tb;text-anchor:start;fill:#000000;fill-opacity:1;stroke:none;stroke-width:1px;stroke-linecap:butt;stroke-linejoin:miter;stroke-opacity:1"
     x="257.86987"
     y="149.11151"
     id="text4263"
     sodipodi:linespacing="125%"><tspan
       sodipodi:role="line"
       id="tspan4265"
       x="257.86987"
       y="149.11151">1</tspan></text>
  <text
     xml:space="preserve"
     style="font-style:normal;font-variant:normal;font-weight:normal;font-stretch:normal;font-size:8.46666622px;line-height:125%;font-family:TechnicLite;-inkscape-font-specification:'TechnicLite, Normal';text-align:start;letter-spacing:0px;word-spacing:0px;writing-mode:lr-tb;text-anchor:start;fill:#000000;fill-opacity:1;stroke:none;stroke-width:1px;stroke-linecap:butt;stroke-linejoin:miter;stroke-opacity:1"
     x="238.20604"
     y="149.11151"
     id="text4267"
     sodipodi:linespacing="125%"><tspan
       sodipodi:role="line"
       id="tspan4269"
       x="238.20604"
       y="149.11151">2</tspan></text>
  <text
     xml:space="preserve"
     style="font-style:normal;font-variant:normal;font-weight:normal;font-stretch:normal;font-size:8.46666622px;line-height:125%;font-family:TechnicLite;-inkscape-font-specification:'TechnicLite, Normal';text-align:start;letter-spacing:0px;word-spacing:0px;writing-mode:lr-tb;text-anchor:start;fill:#000000;fill-opacity:1;stroke:none;stroke-width:1px;stroke-linecap:butt;stroke-linejoin:miter;stroke-opacity:1"
     x="216.55612"
     y="149.02882"
     id="text4271"
     sodipodi:linespacing="125%"><tspan
       sodipodi:role="line"
       id="tspan4273"
       x="216.55612"
       y="149.02882">3</tspan></text>
  <text
     xml:space="preserve"
     style="font-style:normal;font-variant:normal;font-weight:normal;font-stretch:normal;font-size:8.46666622px;line-height:125%;font-family:TechnicLite;-inkscape-font-specification:'TechnicLite, Normal';text-align:start;letter-spacing:0px;word-spacing:0px;writing-mode:lr-tb;text-anchor:start;fill:#000000;fill-opacity:1;stroke:none;stroke-width:1px;stroke-linecap:butt;stroke-linejoin:miter;stroke-opacity:1"
     x="197.49017"
     y="149.11151"
     id="text4275"
     sodipodi:linespacing="125%"><tspan
       sodipodi:role="line"
       id="tspan4277"
       x="197.49017"
       y="149.11151">4</tspan></text>
  <text
     xml:space="preserve"
     style="font-style:normal;font-variant:normal;font-weight:normal;font-stretch:normal;font-size:8.46666622px;line-height:125%;font-family:TechnicLite;-inkscape-font-specification:'TechnicLite, Normal';text-align:start;letter-spacing:0px;word-spacing:0px;writing-mode:lr-tb;text-anchor:start;fill:#000000;fill-opacity:1;stroke:none;stroke-width:1px;stroke-linecap:butt;stroke-linejoin:miter;stroke-opacity:1"
     x="177.45215"
     y="149.02882"
     id="text4279"
     sodipodi:linespacing="125%"><tspan
       sodipodi:role="line"
       id="tspan4281"
       x="177.45215"
       y="149.02882">5</tspan></text>
  <text
     xml:space="preserve"
     style="font-style:normal;font-variant:normal;font-weight:normal;font-stretch:normal;font-size:8.46666622px;line-height:125%;font-family:TechnicLite;-inkscape-font-specification:'TechnicLite, Normal';text-align:start;letter-spacing:0px;word-spacing:0px;writing-mode:lr-tb;text-anchor:start;fill:#000000;fill-opacity:1;stroke:none;stroke-width:1px;stroke-linecap:butt;stroke-linejoin:miter;stroke-opacity:1"
     x="158.47714"
     y="149.02882"
     id="text4283"
     sodipodi:linespacing="125%"><tspan
       sodipodi:role="line"
       id="tspan4285"
       x="158.47714"
       y="149.02882">6</tspan></text>
  <text
     xml:space="preserve"
     style="font-style:normal;font-variant:normal;font-weight:normal;font-stretch:normal;font-size:8.46666622px;line-height:125%;font-family:TechnicLite;-inkscape-font-specification:'TechnicLite, Normal';text-align:start;letter-spacing:0px;word-spacing:0px;writing-mode:lr-tb;text-anchor:start;fill:#000000;fill-opacity:1;stroke:none;stroke-width:1px;stroke-linecap:butt;stroke-linejoin:miter;stroke-opacity:1"
     x="141.69849"
     y="149.11151"
     id="text4287"
     sodipodi:linespacing="125%"><tspan
       sodipodi:role="line"
       id="tspan4289"
       x="141.69849"
       y="149.11151">7</tspan></text>
  <text
     xml:space="preserve"
     style="font-style:normal;font-variant:normal;font-weight:normal;font-stretch:normal;font-size:8.46666622px;line-height:125%;font-family:TechnicLite;-inkscape-font-specification:'TechnicLite, Normal';text-align:start;letter-spacing:0px;word-spacing:0px;writing-mode:lr-tb;text-anchor:start;fill:#000000;fill-opacity:1;stroke:none;stroke-width:1px;stroke-linecap:butt;stroke-linejoin:miter;stroke-opacity:1"
     x="117.53646"
     y="149.02882"
     id="text4291"
     sodipodi:linespacing="125%"><tspan
       sodipodi:role="line"
       id="tspan4293"
       x="117.53646"
       y="149.02882">8</tspan></text>
  <text
     xml:space="preserve"
     style="font-style:normal;font-variant:normal;font-weight:normal;font-stretch:normal;font-size:8.46666622px;line-height:125%;font-family:TechnicLite;-inkscape-font-specification:'TechnicLite, Normal';text-align:start;letter-spacing:0px;word-spacing:0px;writing-mode:lr-tb;text-anchor:start;fill:#000000;fill-opacity:1;stroke:none;stroke-width:1px;stroke-linecap:butt;stroke-linejoin:miter;stroke-opacity:1"
     x="100.30977"
     y="149.02882"
     id="text4295"
     sodipodi:linespacing="125%"><tspan
       sodipodi:role="line"
       id="tspan4297"
       x="100.30977"
       y="149.02882">9</tspan></text>
  <text
     xml:space="preserve"
     style="font-style:normal;font-variant:normal;font-weight:normal;font-stretch:normal;font-size:8.46666622px;line-height:125%;font-family:TechnicLite;-inkscape-font-specification:'TechnicLite, Normal';text-align:start;letter-spacing:0px;word-spacing:0px;writing-mode:lr-tb;text-anchor:start;fill:#000000;fill-opacity:1;stroke:none;stroke-width:1px;stroke-linecap:butt;stroke-linejoin:miter;stroke-opacity:1"
     x="78.218781"
     y="149.02882"
     id="text4299"
     sodipodi:linespacing="125%"><tspan
       sodipodi:role="line"
       id="tspan4301"
       x="78.218781"
       y="149.02882">10</tspan></text>
  <text
     xml:space="preserve"
     style="font-style:normal;font-variant:normal;font-weight:normal;font-stretch:normal;font-size:8.46666622px;line-height:125%;font-family:TechnicLite;-inkscape-font-specification:'TechnicLite, Normal';text-align:start;letter-spacing:0px;word-spacing:0px;writing-mode:lr-tb;text-anchor:start;fill:#000000;fill-opacity:1;stroke:none;stroke-width:1px;stroke-linecap:butt;stroke-linejoin:miter;stroke-opacity:1"
     x="63.440052"
     y="149.11151"
     id="text4303"
     sodipodi:linespacing="125%"><tspan
       sodipodi:role="line"
       id="tspan4305"
       x="63.440052"
       y="149.11151">11</tspan></text>
  <text
     xml:space="preserve"
     style="font-style:normal;font-variant:normal;font-weight:normal;font-stretch:normal;font-size:8.46666622px;line-height:125%;font-family:TechnicLite;-inkscape-font-specification:'TechnicLite, Normal';text-align:start;letter-spacing:0px;word-spacing:0px;writing-mode:lr-tb;text-anchor:start;fill:#000000;fill-opacity:1;stroke:none;stroke-width:1px;stroke-linecap:butt;stroke-linejoin:miter;stroke-opacity:1"
     x="41.705456"
     y="149.11151"
     id="text4307"
     sodipodi:linespacing="125%"><tspan
       sodipodi:role="line"
       id="tspan4309"
       x="41.705456"
       y="149.11151">12</tspan></text>
  <text
     xml:space="preserve"
     style="font-style:normal;font-variant:normal;font-weight:normal;font-stretch:normal;font-size:8.46666622px;line-height:125%;font-family:TechnicLite;-inkscape-font-specification:'TechnicLite, Normal';text-align:start;letter-spacing:0px;word-spacing:0px;writing-mode:lr-tb;text-anchor:start;fill:#000000;fill-opacity:1;stroke:none;stroke-width:1px;stroke-linecap:butt;stroke-linejoin:miter;stroke-opacity:1"
     x="15.549656"
     y="149.02882"
     id="text4311"
     sodipodi:linespacing="125%"><tspan
       sodipodi:role="line"
       id="tspan4313"
       x="15.549656"
       y="149.02882">13</tspan></text>
  <text
     xml:space="preserve"
     style="font-style:normal;font-variant:normal;font-weight:normal;font-stretch:normal;font-size:17.63888931px;line-height:125%;font-family:Technic;-inkscape-font-specification:Technic;text-align:start;letter-spacing:0px;word-spacing:0px;writing-mode:lr-tb;text-anchor:start;fill:#000000;fill-opacity:1;stroke:none;stroke-width:1px;stroke-linecap:butt;stroke-linejoin:miter;stroke-opacity:1"
     x="51.672714"
     y="-12.717785"
     id="text4315"
     sodipodi:linespacing="125%"><tspan
       sodipodi:role="line"
       id="tspan4317"
       x="51.672714"
       y="-12.717785">Back of the plate </tspan></text>
</svg>
